  0
SECTION
  2
HEADER
  9
$ACADVER
  1
AC1014
  9
$EXTMIN
 10
70.16401489310567
 20
112.369642808922
 30
0.0
  9
$EXTMAX
 10
277.0834797641999
 20
227.1366601424358
 30
0.0
  9
$HANDSEED
  5
56
  9
$MEASUREMENT
 70
1
  0
ENDSEC
  0
SECTION
  2
TABLES
  0
TABLE
  2
VPORT
  5
8
330
0
100
AcDbSymbolTable
 70
     4
  0
VPORT
  5
2E
330
8
100
AcDbSymbolTableRecord
100
AcDbViewportTableRecord
  2
*ACTIVE
 70
     0
 10
0.0
 20
0.0
 11
1.0
 21
1.0
 12
209.9999999999999
 22
148.4999999999999
 13
0.0
 23
0.0
 14
10.0
 24
10.0
 15
10.0
 25
10.0
 16
0.0
 26
0.0
 36
1.0
 17
0.0
 27
0.0
 37
0.0
 40
340.9950045922664
 41
1.239944521497919
 42
50.0
 43
0.0
 44
0.0
 50
0.0
 51
0.0
 71
     0
 72
   100
 73
     1
 74
     3
 75
     0
 76
     0
 77
     0
 78
     0
  0
ENDTAB
  0
TABLE
  2
LTYPE
  5
5
330
0
100
AcDbSymbolTable
 70
     1
  0
LTYPE
  5
14
330
5
100
AcDbSymbolTableRecord
100
AcDbLinetypeTableRecord
  2
BYBLOCK
 70
     0
  3

 72
    65
 73
     0
 40
0.0
  0
LTYPE
  5
15
330
5
100
AcDbSymbolTableRecord
100
AcDbLinetypeTableRecord
  2
BYLAYER
 70
     0
  3

 72
    65
 73
     0
 40
0.0
  0
LTYPE
  5
16
330
5
100
AcDbSymbolTableRecord
100
AcDbLinetypeTableRecord
  2
CONTINUOUS
 70
     0
  3
Solid line
 72
    65
 73
     0
 40
0.0
  0
ENDTAB
  0
TABLE
  2
LAYER
  5
2
330
0
100
AcDbSymbolTable
 70
4
  0
LAYER
  5
10
330
2
100
AcDbSymbolTableRecord
100
AcDbLayerTableRecord
  2
0
 70
     0
 62
     7
  6
CONTINUOUS
  0
LAYER
  5
154
100
AcDbSymbolTableRecord
100
AcDbLayerTableRecord
  2
C00-00-00-BLACK
 70
0
 62
7
  6
CONTINUOUS
  0
LAYER
  5
155
100
AcDbSymbolTableRecord
100
AcDbLayerTableRecord
  2
CFF-FF-FF-WHITE
 70
0
 62
7
  6
CONTINUOUS
  0
ENDTAB
  0
TABLE
  2
STYLE
  5
3
330
0
100
AcDbSymbolTable
 70
     1
  0
STYLE
  5
11
330
3
100
AcDbSymbolTableRecord
100
AcDbTextStyleTableRecord
  2
STANDARD
 70
     0
 40
0.0
 41
1.0
 50
0.0
 71
     0
 42
2.5
  3
txt
  4

  0
ENDTAB
  0
TABLE
  2
VIEW
  5
6
330
0
100
AcDbSymbolTable
 70
     0
  0
ENDTAB
  0
TABLE
  2
UCS
  5
7
330
0
100
AcDbSymbolTable
 70
     0
  0
ENDTAB
  0
TABLE
  2
APPID
  5
9
330
0
100
AcDbSymbolTable
 70
     2
  0
APPID
  5
12
330
9
100
AcDbSymbolTableRecord
100
AcDbRegAppTableRecord
  2
ACAD
 70
     0
  0
APPID
  5
2B
330
9
100
AcDbSymbolTableRecord
100
AcDbRegAppTableRecord
  2
URBANX
 70
     0
  0
ENDTAB
  0
TABLE
  2
DIMSTYLE
  5
A
330
0
100
AcDbSymbolTable
 70
     1
  0
DIMSTYLE
105
27
330
A
100
AcDbSymbolTableRecord
100
AcDbDimStyleTableRecord
  2
ISO-25
 70
     0
  3

  4

  5

  6

  7

 40
1.0
 41
2.5
 42
0.625
 43
3.75
 44
1.25
 45
0.0
 46
0.0
 47
0.0
 48
0.0
140
2.5
141
2.5
142
0.0
143
0.03937007874016
144
1.0
145
0.0
146
1.0
147
0.625
 71
     0
 72
     0
 73
     0
 74
     0
 75
     0
 76
     0
 77
     1
 78
     8
170
     0
171
     3
172
     1
173
     0
174
     0
175
     0
176
     0
177
     0
178
     0
270
     2
271
     2
272
     2
273
     2
274
     3
340
11
275
     0
280
     0
281
     0
282
     0
283
     0
284
     8
285
     0
286
     0
287
     3
288
     0
  0
ENDTAB
  0
TABLE
  2
BLOCK_RECORD
  5
1
330
0
100
AcDbSymbolTable
 70
     1
  0
BLOCK_RECORD
  5
1F
102
{ACAD_XDICTIONARY
360
52
102
}
330
1
100
AcDbSymbolTableRecord
100
AcDbBlockTableRecord
  2
*MODEL_SPACE
  0
BLOCK_RECORD
  5
1B
102
{ACAD_XDICTIONARY
360
50
102
}
330
1
100
AcDbSymbolTableRecord
100
AcDbBlockTableRecord
  2
*PAPER_SPACE
  0
ENDTAB
  0
ENDSEC
  0
SECTION
  2
BLOCKS
  0
BLOCK
  5
20
330
1F
100
AcDbEntity
  8
0
100
AcDbBlockBegin
  2
*MODEL_SPACE
 70
     0
 10
0.0
 20
0.0
 30
0.0
  3
*MODEL_SPACE
  1

  0
ENDBLK
  5
21
330
1F
100
AcDbEntity
  8
0
100
AcDbBlockEnd
  0
BLOCK
  5
1C
330
1B
100
AcDbEntity
 67
     1
  8
0
100
AcDbBlockBegin
  2
*PAPER_SPACE
  1

  0
ENDBLK
  5
1D
330
1B
100
AcDbEntity
 67
     1
  8
0
100
AcDbBlockEnd
  0
ENDSEC
  0
SECTION
  2
ENTITIES
  0
LINE
  5
ff
100
AcDbEntity
  8
C00-00-00-BLACK
100
AcDbLine
 10
20
 20
20
 30
0.0
 11
20
 21
107
 31
0.0
  0
LINE
  5
100
100
AcDbEntity
  8
C00-00-00-BLACK
100
AcDbLine
 10
20
 20
107
 30
0.0
 11
170
 21
107
 31
0.0
  0
LINE
  5
101
100
AcDbEntity
  8
C00-00-00-BLACK
100
AcDbLine
 10
170
 20
107
 30
0.0
 11
170
 21
65
 31
0.0
  0
LINE
  5
102
100
AcDbEntity
  8
C00-00-00-BLACK
100
AcDbLine
 10
170
 20
65
 30
0.0
 11
120
 21
20
 31
0.0
  0
LINE
  5
103
100
AcDbEntity
  8
C00-00-00-BLACK
100
AcDbLine
 10
120
 20
20
 30
0.0
 11
20
 21
20
 31
0.0
  0
LINE
  5
104
100
AcDbEntity
  8
C00-00-00-BLACK
100
AcDbLine
 10
29.1
 20
27.5
 30
0.0
 11
29.1
 21
27.5
 31
0.0
  0
SPLINE
  5
105
100
AcDbEntity
  8
C00-00-00-BLACK
100
AcDbSpline
210
0.0
220
0.0
230
1.0
 70
     0
 71
     3
 72
     8
 73
4
 40
0.0
 40
0.0
 40
0.0
 40
0.0
 40
1.0
 40
1.0
 40
1.0
 40
1.0
 10
29.1
 20
27.5
 30
0.0
 10
29.1
 20
28.3835
 30
0.0
 10
28.3835
 20
29.1
 30
0.0
 10
27.5
 20
29.1
 30
0.0
  0
SPLINE
  5
106
100
AcDbEntity
  8
C00-00-00-BLACK
100
AcDbSpline
210
0.0
220
0.0
230
1.0
 70
     0
 71
     3
 72
     8
 73
4
 40
0.0
 40
0.0
 40
0.0
 40
0.0
 40
1.0
 40
1.0
 40
1.0
 40
1.0
 10
27.5
 20
29.1
 30
0.0
 10
26.6164
 20
29.1
 30
0.0
 10
25.9001
 20
28.3835
 30
0.0
 10
25.9001
 20
27.5
 30
0.0
  0
SPLINE
  5
107
100
AcDbEntity
  8
C00-00-00-BLACK
100
AcDbSpline
210
0.0
220
0.0
230
1.0
 70
     0
 71
     3
 72
     8
 73
4
 40
0.0
 40
0.0
 40
0.0
 40
0.0
 40
1.0
 40
1.0
 40
1.0
 40
1.0
 10
25.9001
 20
27.5
 30
0.0
 10
25.9001
 20
26.6164
 30
0.0
 10
26.6164
 20
25.9001
 30
0.0
 10
27.5
 20
25.9001
 30
0.0
  0
SPLINE
  5
108
100
AcDbEntity
  8
C00-00-00-BLACK
100
AcDbSpline
210
0.0
220
0.0
230
1.0
 70
     0
 71
     3
 72
     8
 73
4
 40
0.0
 40
0.0
 40
0.0
 40
0.0
 40
1.0
 40
1.0
 40
1.0
 40
1.0
 10
27.5
 20
25.9001
 30
0.0
 10
28.3835
 20
25.9001
 30
0.0
 10
29.1
 20
26.6164
 30
0.0
 10
29.1
 20
27.5
 30
0.0
  0
LINE
  5
109
100
AcDbEntity
  8
C00-00-00-BLACK
100
AcDbLine
 10
56.6
 20
27.5
 30
0.0
 11
56.6
 21
27.5
 31
0.0
  0
SPLINE
  5
10a
100
AcDbEntity
  8
C00-00-00-BLACK
100
AcDbSpline
210
0.0
220
0.0
230
1.0
 70
     0
 71
     3
 72
     8
 73
4
 40
0.0
 40
0.0
 40
0.0
 40
0.0
 40
1.0
 40
1.0
 40
1.0
 40
1.0
 10
56.6
 20
27.5
 30
0.0
 10
56.6
 20
28.3835
 30
0.0
 10
55.8835
 20
29.1
 30
0.0
 10
54.9998
 20
29.1
 30
0.0
  0
SPLINE
  5
10b
100
AcDbEntity
  8
C00-00-00-BLACK
100
AcDbSpline
210
0.0
220
0.0
230
1.0
 70
     0
 71
     3
 72
     8
 73
4
 40
0.0
 40
0.0
 40
0.0
 40
0.0
 40
1.0
 40
1.0
 40
1.0
 40
1.0
 10
54.9998
 20
29.1
 30
0.0
 10
54.1165
 20
29.1
 30
0.0
 10
53.4
 20
28.3835
 30
0.0
 10
53.4
 20
27.5
 30
0.0
  0
SPLINE
  5
10c
100
AcDbEntity
  8
C00-00-00-BLACK
100
AcDbSpline
210
0.0
220
0.0
230
1.0
 70
     0
 71
     3
 72
     8
 73
4
 40
0.0
 40
0.0
 40
0.0
 40
0.0
 40
1.0
 40
1.0
 40
1.0
 40
1.0
 10
53.4
 20
27.5
 30
0.0
 10
53.4
 20
26.6164
 30
0.0
 10
54.1165
 20
25.9001
 30
0.0
 10
54.9998
 20
25.9001
 30
0.0
  0
SPLINE
  5
10d
100
AcDbEntity
  8
C00-00-00-BLACK
100
AcDbSpline
210
0.0
220
0.0
230
1.0
 70
     0
 71
     3
 72
     8
 73
4
 40
0.0
 40
0.0
 40
0.0
 40
0.0
 40
1.0
 40
1.0
 40
1.0
 40
1.0
 10
54.9998
 20
25.9001
 30
0.0
 10
55.8835
 20
25.9001
 30
0.0
 10
56.6
 20
26.6164
 30
0.0
 10
56.6
 20
27.5
 30
0.0
  0
LINE
  5
10e
100
AcDbEntity
  8
C00-00-00-BLACK
100
AcDbLine
 10
84.1001
 20
27.5
 30
0.0
 11
84.1001
 21
27.5
 31
0.0
  0
SPLINE
  5
10f
100
AcDbEntity
  8
C00-00-00-BLACK
100
AcDbSpline
210
0.0
220
0.0
230
1.0
 70
     0
 71
     3
 72
     8
 73
4
 40
0.0
 40
0.0
 40
0.0
 40
0.0
 40
1.0
 40
1.0
 40
1.0
 40
1.0
 10
84.1001
 20
27.5
 30
0.0
 10
84.1001
 20
28.3835
 30
0.0
 10
83.3836
 20
29.1
 30
0.0
 10
82.4999
 20
29.1
 30
0.0
  0
SPLINE
  5
110
100
AcDbEntity
  8
C00-00-00-BLACK
100
AcDbSpline
210
0.0
220
0.0
230
1.0
 70
     0
 71
     3
 72
     8
 73
4
 40
0.0
 40
0.0
 40
0.0
 40
0.0
 40
1.0
 40
1.0
 40
1.0
 40
1.0
 10
82.4999
 20
29.1
 30
0.0
 10
81.6166
 20
29.1
 30
0.0
 10
80.9001
 20
28.3835
 30
0.0
 10
80.9001
 20
27.5
 30
0.0
  0
SPLINE
  5
111
100
AcDbEntity
  8
C00-00-00-BLACK
100
AcDbSpline
210
0.0
220
0.0
230
1.0
 70
     0
 71
     3
 72
     8
 73
4
 40
0.0
 40
0.0
 40
0.0
 40
0.0
 40
1.0
 40
1.0
 40
1.0
 40
1.0
 10
80.9001
 20
27.5
 30
0.0
 10
80.9001
 20
26.6164
 30
0.0
 10
81.6166
 20
25.9001
 30
0.0
 10
82.4999
 20
25.9001
 30
0.0
  0
SPLINE
  5
112
100
AcDbEntity
  8
C00-00-00-BLACK
100
AcDbSpline
210
0.0
220
0.0
230
1.0
 70
     0
 71
     3
 72
     8
 73
4
 40
0.0
 40
0.0
 40
0.0
 40
0.0
 40
1.0
 40
1.0
 40
1.0
 40
1.0
 10
82.4999
 20
25.9001
 30
0.0
 10
83.3836
 20
25.9001
 30
0.0
 10
84.1001
 20
26.6164
 30
0.0
 10
84.1001
 20
27.5
 30
0.0
  0
LINE
  5
113
100
AcDbEntity
  8
C00-00-00-BLACK
100
AcDbLine
 10
111.6
 20
27.5
 30
0.0
 11
111.6
 21
27.5
 31
0.0
  0
SPLINE
  5
114
100
AcDbEntity
  8
C00-00-00-BLACK
100
AcDbSpline
210
0.0
220
0.0
230
1.0
 70
     0
 71
     3
 72
     8
 73
4
 40
0.0
 40
0.0
 40
0.0
 40
0.0
 40
1.0
 40
1.0
 40
1.0
 40
1.0
 10
111.6
 20
27.5
 30
0.0
 10
111.6
 20
28.3835
 30
0.0
 10
110.884
 20
29.1
 30
0.0
 10
110
 20
29.1
 30
0.0
  0
SPLINE
  5
115
100
AcDbEntity
  8
C00-00-00-BLACK
100
AcDbSpline
210
0.0
220
0.0
230
1.0
 70
     0
 71
     3
 72
     8
 73
4
 40
0.0
 40
0.0
 40
0.0
 40
0.0
 40
1.0
 40
1.0
 40
1.0
 40
1.0
 10
110
 20
29.1
 30
0.0
 10
109.117
 20
29.1
 30
0.0
 10
108.4
 20
28.3835
 30
0.0
 10
108.4
 20
27.5
 30
0.0
  0
SPLINE
  5
116
100
AcDbEntity
  8
C00-00-00-BLACK
100
AcDbSpline
210
0.0
220
0.0
230
1.0
 70
     0
 71
     3
 72
     8
 73
4
 40
0.0
 40
0.0
 40
0.0
 40
0.0
 40
1.0
 40
1.0
 40
1.0
 40
1.0
 10
108.4
 20
27.5
 30
0.0
 10
108.4
 20
26.6164
 30
0.0
 10
109.117
 20
25.9001
 30
0.0
 10
110
 20
25.9001
 30
0.0
  0
SPLINE
  5
117
100
AcDbEntity
  8
C00-00-00-BLACK
100
AcDbSpline
210
0.0
220
0.0
230
1.0
 70
     0
 71
     3
 72
     8
 73
4
 40
0.0
 40
0.0
 40
0.0
 40
0.0
 40
1.0
 40
1.0
 40
1.0
 40
1.0
 10
110
 20
25.9001
 30
0.0
 10
110.884
 20
25.9001
 30
0.0
 10
111.6
 20
26.6164
 30
0.0
 10
111.6
 20
27.5
 30
0.0
  0
LINE
  5
118
100
AcDbEntity
  8
C00-00-00-BLACK
100
AcDbLine
 10
29.1
 20
72.5001
 30
0.0
 11
29.1
 21
72.5001
 31
0.0
  0
SPLINE
  5
119
100
AcDbEntity
  8
C00-00-00-BLACK
100
AcDbSpline
210
0.0
220
0.0
230
1.0
 70
     0
 71
     3
 72
     8
 73
4
 40
0.0
 40
0.0
 40
0.0
 40
0.0
 40
1.0
 40
1.0
 40
1.0
 40
1.0
 10
29.1
 20
72.5001
 30
0.0
 10
29.1
 20
73.3834
 30
0.0
 10
28.3835
 20
74.0999
 30
0.0
 10
27.5
 20
74.0999
 30
0.0
  0
SPLINE
  5
11a
100
AcDbEntity
  8
C00-00-00-BLACK
100
AcDbSpline
210
0.0
220
0.0
230
1.0
 70
     0
 71
     3
 72
     8
 73
4
 40
0.0
 40
0.0
 40
0.0
 40
0.0
 40
1.0
 40
1.0
 40
1.0
 40
1.0
 10
27.5
 20
74.0999
 30
0.0
 10
26.6164
 20
74.0999
 30
0.0
 10
25.9001
 20
73.3834
 30
0.0
 10
25.9001
 20
72.5001
 30
0.0
  0
SPLINE
  5
11b
100
AcDbEntity
  8
C00-00-00-BLACK
100
AcDbSpline
210
0.0
220
0.0
230
1.0
 70
     0
 71
     3
 72
     8
 73
4
 40
0.0
 40
0.0
 40
0.0
 40
0.0
 40
1.0
 40
1.0
 40
1.0
 40
1.0
 10
25.9001
 20
72.5001
 30
0.0
 10
25.9001
 20
71.6164
 30
0.0
 10
26.6164
 20
70.9002
 30
0.0
 10
27.5
 20
70.9002
 30
0.0
  0
SPLINE
  5
11c
100
AcDbEntity
  8
C00-00-00-BLACK
100
AcDbSpline
210
0.0
220
0.0
230
1.0
 70
     0
 71
     3
 72
     8
 73
4
 40
0.0
 40
0.0
 40
0.0
 40
0.0
 40
1.0
 40
1.0
 40
1.0
 40
1.0
 10
27.5
 20
70.9002
 30
0.0
 10
28.3835
 20
70.9002
 30
0.0
 10
29.1
 20
71.6164
 30
0.0
 10
29.1
 20
72.5001
 30
0.0
  0
LINE
  5
11d
100
AcDbEntity
  8
C00-00-00-BLACK
100
AcDbLine
 10
111.6
 20
72.5001
 30
0.0
 11
111.6
 21
72.5001
 31
0.0
  0
SPLINE
  5
11e
100
AcDbEntity
  8
C00-00-00-BLACK
100
AcDbSpline
210
0.0
220
0.0
230
1.0
 70
     0
 71
     3
 72
     8
 73
4
 40
0.0
 40
0.0
 40
0.0
 40
0.0
 40
1.0
 40
1.0
 40
1.0
 40
1.0
 10
111.6
 20
72.5001
 30
0.0
 10
111.6
 20
73.3834
 30
0.0
 10
110.884
 20
74.0999
 30
0.0
 10
110
 20
74.0999
 30
0.0
  0
SPLINE
  5
11f
100
AcDbEntity
  8
C00-00-00-BLACK
100
AcDbSpline
210
0.0
220
0.0
230
1.0
 70
     0
 71
     3
 72
     8
 73
4
 40
0.0
 40
0.0
 40
0.0
 40
0.0
 40
1.0
 40
1.0
 40
1.0
 40
1.0
 10
110
 20
74.0999
 30
0.0
 10
109.117
 20
74.0999
 30
0.0
 10
108.4
 20
73.3834
 30
0.0
 10
108.4
 20
72.5001
 30
0.0
  0
SPLINE
  5
120
100
AcDbEntity
  8
C00-00-00-BLACK
100
AcDbSpline
210
0.0
220
0.0
230
1.0
 70
     0
 71
     3
 72
     8
 73
4
 40
0.0
 40
0.0
 40
0.0
 40
0.0
 40
1.0
 40
1.0
 40
1.0
 40
1.0
 10
108.4
 20
72.5001
 30
0.0
 10
108.4
 20
71.6164
 30
0.0
 10
109.117
 20
70.9002
 30
0.0
 10
110
 20
70.9002
 30
0.0
  0
SPLINE
  5
121
100
AcDbEntity
  8
C00-00-00-BLACK
100
AcDbSpline
210
0.0
220
0.0
230
1.0
 70
     0
 71
     3
 72
     8
 73
4
 40
0.0
 40
0.0
 40
0.0
 40
0.0
 40
1.0
 40
1.0
 40
1.0
 40
1.0
 10
110
 20
70.9002
 30
0.0
 10
110.884
 20
70.9002
 30
0.0
 10
111.6
 20
71.6164
 30
0.0
 10
111.6
 20
72.5001
 30
0.0
  0
LINE
  5
122
100
AcDbEntity
  8
C00-00-00-BLACK
100
AcDbLine
 10
56.6
 20
72.5001
 30
0.0
 11
56.6
 21
72.5001
 31
0.0
  0
SPLINE
  5
123
100
AcDbEntity
  8
C00-00-00-BLACK
100
AcDbSpline
210
0.0
220
0.0
230
1.0
 70
     0
 71
     3
 72
     8
 73
4
 40
0.0
 40
0.0
 40
0.0
 40
0.0
 40
1.0
 40
1.0
 40
1.0
 40
1.0
 10
56.6
 20
72.5001
 30
0.0
 10
56.6
 20
73.3834
 30
0.0
 10
55.8835
 20
74.0999
 30
0.0
 10
54.9998
 20
74.0999
 30
0.0
  0
SPLINE
  5
124
100
AcDbEntity
  8
C00-00-00-BLACK
100
AcDbSpline
210
0.0
220
0.0
230
1.0
 70
     0
 71
     3
 72
     8
 73
4
 40
0.0
 40
0.0
 40
0.0
 40
0.0
 40
1.0
 40
1.0
 40
1.0
 40
1.0
 10
54.9998
 20
74.0999
 30
0.0
 10
54.1165
 20
74.0999
 30
0.0
 10
53.4
 20
73.3834
 30
0.0
 10
53.4
 20
72.5001
 30
0.0
  0
SPLINE
  5
125
100
AcDbEntity
  8
C00-00-00-BLACK
100
AcDbSpline
210
0.0
220
0.0
230
1.0
 70
     0
 71
     3
 72
     8
 73
4
 40
0.0
 40
0.0
 40
0.0
 40
0.0
 40
1.0
 40
1.0
 40
1.0
 40
1.0
 10
53.4
 20
72.5001
 30
0.0
 10
53.4
 20
71.6164
 30
0.0
 10
54.1165
 20
70.9002
 30
0.0
 10
54.9998
 20
70.9002
 30
0.0
  0
SPLINE
  5
126
100
AcDbEntity
  8
C00-00-00-BLACK
100
AcDbSpline
210
0.0
220
0.0
230
1.0
 70
     0
 71
     3
 72
     8
 73
4
 40
0.0
 40
0.0
 40
0.0
 40
0.0
 40
1.0
 40
1.0
 40
1.0
 40
1.0
 10
54.9998
 20
70.9002
 30
0.0
 10
55.8835
 20
70.9002
 30
0.0
 10
56.6
 20
71.6164
 30
0.0
 10
56.6
 20
72.5001
 30
0.0
  0
LINE
  5
127
100
AcDbEntity
  8
C00-00-00-BLACK
100
AcDbLine
 10
84.1001
 20
72.5001
 30
0.0
 11
84.1001
 21
72.5001
 31
0.0
  0
SPLINE
  5
128
100
AcDbEntity
  8
C00-00-00-BLACK
100
AcDbSpline
210
0.0
220
0.0
230
1.0
 70
     0
 71
     3
 72
     8
 73
4
 40
0.0
 40
0.0
 40
0.0
 40
0.0
 40
1.0
 40
1.0
 40
1.0
 40
1.0
 10
84.1001
 20
72.5001
 30
0.0
 10
84.1001
 20
73.3834
 30
0.0
 10
83.3836
 20
74.0999
 30
0.0
 10
82.4999
 20
74.0999
 30
0.0
  0
SPLINE
  5
129
100
AcDbEntity
  8
C00-00-00-BLACK
100
AcDbSpline
210
0.0
220
0.0
230
1.0
 70
     0
 71
     3
 72
     8
 73
4
 40
0.0
 40
0.0
 40
0.0
 40
0.0
 40
1.0
 40
1.0
 40
1.0
 40
1.0
 10
82.4999
 20
74.0999
 30
0.0
 10
81.6166
 20
74.0999
 30
0.0
 10
80.9001
 20
73.3834
 30
0.0
 10
80.9001
 20
72.5001
 30
0.0
  0
SPLINE
  5
12a
100
AcDbEntity
  8
C00-00-00-BLACK
100
AcDbSpline
210
0.0
220
0.0
230
1.0
 70
     0
 71
     3
 72
     8
 73
4
 40
0.0
 40
0.0
 40
0.0
 40
0.0
 40
1.0
 40
1.0
 40
1.0
 40
1.0
 10
80.9001
 20
72.5001
 30
0.0
 10
80.9001
 20
71.6164
 30
0.0
 10
81.6166
 20
70.9002
 30
0.0
 10
82.4999
 20
70.9002
 30
0.0
  0
SPLINE
  5
12b
100
AcDbEntity
  8
C00-00-00-BLACK
100
AcDbSpline
210
0.0
220
0.0
230
1.0
 70
     0
 71
     3
 72
     8
 73
4
 40
0.0
 40
0.0
 40
0.0
 40
0.0
 40
1.0
 40
1.0
 40
1.0
 40
1.0
 10
82.4999
 20
70.9002
 30
0.0
 10
83.3836
 20
70.9002
 30
0.0
 10
84.1001
 20
71.6164
 30
0.0
 10
84.1001
 20
72.5001
 30
0.0
  0
LINE
  5
12c
100
AcDbEntity
  8
C00-00-00-BLACK
100
AcDbLine
 10
139.1
 20
72.5001
 30
0.0
 11
139.1
 21
72.5001
 31
0.0
  0
SPLINE
  5
12d
100
AcDbEntity
  8
C00-00-00-BLACK
100
AcDbSpline
210
0.0
220
0.0
230
1.0
 70
     0
 71
     3
 72
     8
 73
4
 40
0.0
 40
0.0
 40
0.0
 40
0.0
 40
1.0
 40
1.0
 40
1.0
 40
1.0
 10
139.1
 20
72.5001
 30
0.0
 10
139.1
 20
73.3834
 30
0.0
 10
138.383
 20
74.0999
 30
0.0
 10
137.5
 20
74.0999
 30
0.0
  0
SPLINE
  5
12e
100
AcDbEntity
  8
C00-00-00-BLACK
100
AcDbSpline
210
0.0
220
0.0
230
1.0
 70
     0
 71
     3
 72
     8
 73
4
 40
0.0
 40
0.0
 40
0.0
 40
0.0
 40
1.0
 40
1.0
 40
1.0
 40
1.0
 10
137.5
 20
74.0999
 30
0.0
 10
136.616
 20
74.0999
 30
0.0
 10
135.9
 20
73.3834
 30
0.0
 10
135.9
 20
72.5001
 30
0.0
  0
SPLINE
  5
12f
100
AcDbEntity
  8
C00-00-00-BLACK
100
AcDbSpline
210
0.0
220
0.0
230
1.0
 70
     0
 71
     3
 72
     8
 73
4
 40
0.0
 40
0.0
 40
0.0
 40
0.0
 40
1.0
 40
1.0
 40
1.0
 40
1.0
 10
135.9
 20
72.5001
 30
0.0
 10
135.9
 20
71.6164
 30
0.0
 10
136.616
 20
70.9002
 30
0.0
 10
137.5
 20
70.9002
 30
0.0
  0
SPLINE
  5
130
100
AcDbEntity
  8
C00-00-00-BLACK
100
AcDbSpline
210
0.0
220
0.0
230
1.0
 70
     0
 71
     3
 72
     8
 73
4
 40
0.0
 40
0.0
 40
0.0
 40
0.0
 40
1.0
 40
1.0
 40
1.0
 40
1.0
 10
137.5
 20
70.9002
 30
0.0
 10
138.383
 20
70.9002
 30
0.0
 10
139.1
 20
71.6164
 30
0.0
 10
139.1
 20
72.5001
 30
0.0
  0
LINE
  5
131
100
AcDbEntity
  8
C00-00-00-BLACK
100
AcDbLine
 10
166.6
 20
72.5001
 30
0.0
 11
166.6
 21
72.5001
 31
0.0
  0
SPLINE
  5
132
100
AcDbEntity
  8
C00-00-00-BLACK
100
AcDbSpline
210
0.0
220
0.0
230
1.0
 70
     0
 71
     3
 72
     8
 73
4
 40
0.0
 40
0.0
 40
0.0
 40
0.0
 40
1.0
 40
1.0
 40
1.0
 40
1.0
 10
166.6
 20
72.5001
 30
0.0
 10
166.6
 20
73.3834
 30
0.0
 10
165.884
 20
74.0999
 30
0.0
 10
165
 20
74.0999
 30
0.0
  0
SPLINE
  5
133
100
AcDbEntity
  8
C00-00-00-BLACK
100
AcDbSpline
210
0.0
220
0.0
230
1.0
 70
     0
 71
     3
 72
     8
 73
4
 40
0.0
 40
0.0
 40
0.0
 40
0.0
 40
1.0
 40
1.0
 40
1.0
 40
1.0
 10
165
 20
74.0999
 30
0.0
 10
164.116
 20
74.0999
 30
0.0
 10
163.4
 20
73.3834
 30
0.0
 10
163.4
 20
72.5001
 30
0.0
  0
SPLINE
  5
134
100
AcDbEntity
  8
C00-00-00-BLACK
100
AcDbSpline
210
0.0
220
0.0
230
1.0
 70
     0
 71
     3
 72
     8
 73
4
 40
0.0
 40
0.0
 40
0.0
 40
0.0
 40
1.0
 40
1.0
 40
1.0
 40
1.0
 10
163.4
 20
72.5001
 30
0.0
 10
163.4
 20
71.6164
 30
0.0
 10
164.116
 20
70.9002
 30
0.0
 10
165
 20
70.9002
 30
0.0
  0
SPLINE
  5
135
100
AcDbEntity
  8
C00-00-00-BLACK
100
AcDbSpline
210
0.0
220
0.0
230
1.0
 70
     0
 71
     3
 72
     8
 73
4
 40
0.0
 40
0.0
 40
0.0
 40
0.0
 40
1.0
 40
1.0
 40
1.0
 40
1.0
 10
165
 20
70.9002
 30
0.0
 10
165.884
 20
70.9002
 30
0.0
 10
166.6
 20
71.6164
 30
0.0
 10
166.6
 20
72.5001
 30
0.0
  0
LINE
  5
136
100
AcDbEntity
  8
C00-00-00-BLACK
100
AcDbLine
 10
29.1
 20
99.4999
 30
0.0
 11
29.1
 21
99.4999
 31
0.0
  0
SPLINE
  5
137
100
AcDbEntity
  8
C00-00-00-BLACK
100
AcDbSpline
210
0.0
220
0.0
230
1.0
 70
     0
 71
     3
 72
     8
 73
4
 40
0.0
 40
0.0
 40
0.0
 40
0.0
 40
1.0
 40
1.0
 40
1.0
 40
1.0
 10
29.1
 20
99.4999
 30
0.0
 10
29.1
 20
100.384
 30
0.0
 10
28.3835
 20
101.1
 30
0.0
 10
27.5
 20
101.1
 30
0.0
  0
SPLINE
  5
138
100
AcDbEntity
  8
C00-00-00-BLACK
100
AcDbSpline
210
0.0
220
0.0
230
1.0
 70
     0
 71
     3
 72
     8
 73
4
 40
0.0
 40
0.0
 40
0.0
 40
0.0
 40
1.0
 40
1.0
 40
1.0
 40
1.0
 10
27.5
 20
101.1
 30
0.0
 10
26.6164
 20
101.1
 30
0.0
 10
25.9001
 20
100.384
 30
0.0
 10
25.9001
 20
99.4999
 30
0.0
  0
SPLINE
  5
139
100
AcDbEntity
  8
C00-00-00-BLACK
100
AcDbSpline
210
0.0
220
0.0
230
1.0
 70
     0
 71
     3
 72
     8
 73
4
 40
0.0
 40
0.0
 40
0.0
 40
0.0
 40
1.0
 40
1.0
 40
1.0
 40
1.0
 10
25.9001
 20
99.4999
 30
0.0
 10
25.9001
 20
98.6166
 30
0.0
 10
26.6164
 20
97.9001
 30
0.0
 10
27.5
 20
97.9001
 30
0.0
  0
SPLINE
  5
13a
100
AcDbEntity
  8
C00-00-00-BLACK
100
AcDbSpline
210
0.0
220
0.0
230
1.0
 70
     0
 71
     3
 72
     8
 73
4
 40
0.0
 40
0.0
 40
0.0
 40
0.0
 40
1.0
 40
1.0
 40
1.0
 40
1.0
 10
27.5
 20
97.9001
 30
0.0
 10
28.3835
 20
97.9001
 30
0.0
 10
29.1
 20
98.6166
 30
0.0
 10
29.1
 20
99.4999
 30
0.0
  0
LINE
  5
13b
100
AcDbEntity
  8
C00-00-00-BLACK
100
AcDbLine
 10
111.6
 20
99.4999
 30
0.0
 11
111.6
 21
99.4999
 31
0.0
  0
SPLINE
  5
13c
100
AcDbEntity
  8
C00-00-00-BLACK
100
AcDbSpline
210
0.0
220
0.0
230
1.0
 70
     0
 71
     3
 72
     8
 73
4
 40
0.0
 40
0.0
 40
0.0
 40
0.0
 40
1.0
 40
1.0
 40
1.0
 40
1.0
 10
111.6
 20
99.4999
 30
0.0
 10
111.6
 20
100.384
 30
0.0
 10
110.884
 20
101.1
 30
0.0
 10
110
 20
101.1
 30
0.0
  0
SPLINE
  5
13d
100
AcDbEntity
  8
C00-00-00-BLACK
100
AcDbSpline
210
0.0
220
0.0
230
1.0
 70
     0
 71
     3
 72
     8
 73
4
 40
0.0
 40
0.0
 40
0.0
 40
0.0
 40
1.0
 40
1.0
 40
1.0
 40
1.0
 10
110
 20
101.1
 30
0.0
 10
109.117
 20
101.1
 30
0.0
 10
108.4
 20
100.384
 30
0.0
 10
108.4
 20
99.4999
 30
0.0
  0
SPLINE
  5
13e
100
AcDbEntity
  8
C00-00-00-BLACK
100
AcDbSpline
210
0.0
220
0.0
230
1.0
 70
     0
 71
     3
 72
     8
 73
4
 40
0.0
 40
0.0
 40
0.0
 40
0.0
 40
1.0
 40
1.0
 40
1.0
 40
1.0
 10
108.4
 20
99.4999
 30
0.0
 10
108.4
 20
98.6166
 30
0.0
 10
109.117
 20
97.9001
 30
0.0
 10
110
 20
97.9001
 30
0.0
  0
SPLINE
  5
13f
100
AcDbEntity
  8
C00-00-00-BLACK
100
AcDbSpline
210
0.0
220
0.0
230
1.0
 70
     0
 71
     3
 72
     8
 73
4
 40
0.0
 40
0.0
 40
0.0
 40
0.0
 40
1.0
 40
1.0
 40
1.0
 40
1.0
 10
110
 20
97.9001
 30
0.0
 10
110.884
 20
97.9001
 30
0.0
 10
111.6
 20
98.6166
 30
0.0
 10
111.6
 20
99.4999
 30
0.0
  0
LINE
  5
140
100
AcDbEntity
  8
C00-00-00-BLACK
100
AcDbLine
 10
58.2002
 20
99.4999
 30
0.0
 11
58.2002
 21
99.4999
 31
0.0
  0
SPLINE
  5
141
100
AcDbEntity
  8
C00-00-00-BLACK
100
AcDbSpline
210
0.0
220
0.0
230
1.0
 70
     0
 71
     3
 72
     8
 73
4
 40
0.0
 40
0.0
 40
0.0
 40
0.0
 40
1.0
 40
1.0
 40
1.0
 40
1.0
 10
58.2002
 20
99.4999
 30
0.0
 10
58.2002
 20
100.384
 30
0.0
 10
57.4834
 20
101.1
 30
0.0
 10
56.6
 20
101.1
 30
0.0
  0
SPLINE
  5
142
100
AcDbEntity
  8
C00-00-00-BLACK
100
AcDbSpline
210
0.0
220
0.0
230
1.0
 70
     0
 71
     3
 72
     8
 73
4
 40
0.0
 40
0.0
 40
0.0
 40
0.0
 40
1.0
 40
1.0
 40
1.0
 40
1.0
 10
56.6
 20
101.1
 30
0.0
 10
55.7163
 20
101.1
 30
0.0
 10
54.9998
 20
100.384
 30
0.0
 10
54.9998
 20
99.4999
 30
0.0
  0
SPLINE
  5
143
100
AcDbEntity
  8
C00-00-00-BLACK
100
AcDbSpline
210
0.0
220
0.0
230
1.0
 70
     0
 71
     3
 72
     8
 73
4
 40
0.0
 40
0.0
 40
0.0
 40
0.0
 40
1.0
 40
1.0
 40
1.0
 40
1.0
 10
54.9998
 20
99.4999
 30
0.0
 10
54.9998
 20
98.6166
 30
0.0
 10
55.7163
 20
97.9001
 30
0.0
 10
56.6
 20
97.9001
 30
0.0
  0
SPLINE
  5
144
100
AcDbEntity
  8
C00-00-00-BLACK
100
AcDbSpline
210
0.0
220
0.0
230
1.0
 70
     0
 71
     3
 72
     8
 73
4
 40
0.0
 40
0.0
 40
0.0
 40
0.0
 40
1.0
 40
1.0
 40
1.0
 40
1.0
 10
56.6
 20
97.9001
 30
0.0
 10
57.4834
 20
97.9001
 30
0.0
 10
58.2002
 20
98.6166
 30
0.0
 10
58.2002
 20
99.4999
 30
0.0
  0
LINE
  5
145
100
AcDbEntity
  8
C00-00-00-BLACK
100
AcDbLine
 10
84.8999
 20
99.4999
 30
0.0
 11
84.8999
 21
99.4999
 31
0.0
  0
SPLINE
  5
146
100
AcDbEntity
  8
C00-00-00-BLACK
100
AcDbSpline
210
0.0
220
0.0
230
1.0
 70
     0
 71
     3
 72
     8
 73
4
 40
0.0
 40
0.0
 40
0.0
 40
0.0
 40
1.0
 40
1.0
 40
1.0
 40
1.0
 10
84.8999
 20
99.4999
 30
0.0
 10
84.8999
 20
100.384
 30
0.0
 10
84.1834
 20
101.1
 30
0.0
 10
83.3
 20
101.1
 30
0.0
  0
SPLINE
  5
147
100
AcDbEntity
  8
C00-00-00-BLACK
100
AcDbSpline
210
0.0
220
0.0
230
1.0
 70
     0
 71
     3
 72
     8
 73
4
 40
0.0
 40
0.0
 40
0.0
 40
0.0
 40
1.0
 40
1.0
 40
1.0
 40
1.0
 10
83.3
 20
101.1
 30
0.0
 10
82.4163
 20
101.1
 30
0.0
 10
81.7002
 20
100.384
 30
0.0
 10
81.7002
 20
99.4999
 30
0.0
  0
SPLINE
  5
148
100
AcDbEntity
  8
C00-00-00-BLACK
100
AcDbSpline
210
0.0
220
0.0
230
1.0
 70
     0
 71
     3
 72
     8
 73
4
 40
0.0
 40
0.0
 40
0.0
 40
0.0
 40
1.0
 40
1.0
 40
1.0
 40
1.0
 10
81.7002
 20
99.4999
 30
0.0
 10
81.7002
 20
98.6166
 30
0.0
 10
82.4163
 20
97.9001
 30
0.0
 10
83.3
 20
97.9001
 30
0.0
  0
SPLINE
  5
149
100
AcDbEntity
  8
C00-00-00-BLACK
100
AcDbSpline
210
0.0
220
0.0
230
1.0
 70
     0
 71
     3
 72
     8
 73
4
 40
0.0
 40
0.0
 40
0.0
 40
0.0
 40
1.0
 40
1.0
 40
1.0
 40
1.0
 10
83.3
 20
97.9001
 30
0.0
 10
84.1834
 20
97.9001
 30
0.0
 10
84.8999
 20
98.6166
 30
0.0
 10
84.8999
 20
99.4999
 30
0.0
  0
LINE
  5
14a
100
AcDbEntity
  8
C00-00-00-BLACK
100
AcDbLine
 10
138.2
 20
99.4999
 30
0.0
 11
138.2
 21
99.4999
 31
0.0
  0
SPLINE
  5
14b
100
AcDbEntity
  8
C00-00-00-BLACK
100
AcDbSpline
210
0.0
220
0.0
230
1.0
 70
     0
 71
     3
 72
     8
 73
4
 40
0.0
 40
0.0
 40
0.0
 40
0.0
 40
1.0
 40
1.0
 40
1.0
 40
1.0
 10
138.2
 20
99.4999
 30
0.0
 10
138.2
 20
100.384
 30
0.0
 10
137.484
 20
101.1
 30
0.0
 10
136.6
 20
101.1
 30
0.0
  0
SPLINE
  5
14c
100
AcDbEntity
  8
C00-00-00-BLACK
100
AcDbSpline
210
0.0
220
0.0
230
1.0
 70
     0
 71
     3
 72
     8
 73
4
 40
0.0
 40
0.0
 40
0.0
 40
0.0
 40
1.0
 40
1.0
 40
1.0
 40
1.0
 10
136.6
 20
101.1
 30
0.0
 10
135.716
 20
101.1
 30
0.0
 10
135
 20
100.384
 30
0.0
 10
135
 20
99.4999
 30
0.0
  0
SPLINE
  5
14d
100
AcDbEntity
  8
C00-00-00-BLACK
100
AcDbSpline
210
0.0
220
0.0
230
1.0
 70
     0
 71
     3
 72
     8
 73
4
 40
0.0
 40
0.0
 40
0.0
 40
0.0
 40
1.0
 40
1.0
 40
1.0
 40
1.0
 10
135
 20
99.4999
 30
0.0
 10
135
 20
98.6166
 30
0.0
 10
135.716
 20
97.9001
 30
0.0
 10
136.6
 20
97.9001
 30
0.0
  0
SPLINE
  5
14e
100
AcDbEntity
  8
C00-00-00-BLACK
100
AcDbSpline
210
0.0
220
0.0
230
1.0
 70
     0
 71
     3
 72
     8
 73
4
 40
0.0
 40
0.0
 40
0.0
 40
0.0
 40
1.0
 40
1.0
 40
1.0
 40
1.0
 10
136.6
 20
97.9001
 30
0.0
 10
137.484
 20
97.9001
 30
0.0
 10
138.2
 20
98.6166
 30
0.0
 10
138.2
 20
99.4999
 30
0.0
  0
LINE
  5
14f
100
AcDbEntity
  8
C00-00-00-BLACK
100
AcDbLine
 10
164.9
 20
99.4999
 30
0.0
 11
164.9
 21
99.4999
 31
0.0
  0
SPLINE
  5
150
100
AcDbEntity
  8
C00-00-00-BLACK
100
AcDbSpline
210
0.0
220
0.0
230
1.0
 70
     0
 71
     3
 72
     8
 73
4
 40
0.0
 40
0.0
 40
0.0
 40
0.0
 40
1.0
 40
1.0
 40
1.0
 40
1.0
 10
164.9
 20
99.4999
 30
0.0
 10
164.9
 20
100.384
 30
0.0
 10
164.183
 20
101.1
 30
0.0
 10
163.3
 20
101.1
 30
0.0
  0
SPLINE
  5
151
100
AcDbEntity
  8
C00-00-00-BLACK
100
AcDbSpline
210
0.0
220
0.0
230
1.0
 70
     0
 71
     3
 72
     8
 73
4
 40
0.0
 40
0.0
 40
0.0
 40
0.0
 40
1.0
 40
1.0
 40
1.0
 40
1.0
 10
163.3
 20
101.1
 30
0.0
 10
162.416
 20
101.1
 30
0.0
 10
161.7
 20
100.384
 30
0.0
 10
161.7
 20
99.4999
 30
0.0
  0
SPLINE
  5
152
100
AcDbEntity
  8
C00-00-00-BLACK
100
AcDbSpline
210
0.0
220
0.0
230
1.0
 70
     0
 71
     3
 72
     8
 73
4
 40
0.0
 40
0.0
 40
0.0
 40
0.0
 40
1.0
 40
1.0
 40
1.0
 40
1.0
 10
161.7
 20
99.4999
 30
0.0
 10
161.7
 20
98.6166
 30
0.0
 10
162.416
 20
97.9001
 30
0.0
 10
163.3
 20
97.9001
 30
0.0
  0
SPLINE
  5
153
100
AcDbEntity
  8
C00-00-00-BLACK
100
AcDbSpline
210
0.0
220
0.0
230
1.0
 70
     0
 71
     3
 72
     8
 73
4
 40
0.0
 40
0.0
 40
0.0
 40
0.0
 40
1.0
 40
1.0
 40
1.0
 40
1.0
 10
163.3
 20
97.9001
 30
0.0
 10
164.183
 20
97.9001
 30
0.0
 10
164.9
 20
98.6166
 30
0.0
 10
164.9
 20
99.4999
 30
0.0
  0
ENDSEC
  0
SECTION
  2
OBJECTS
  0
DICTIONARY
  5
C
330
0
100
AcDbDictionary
  3
ACAD_GROUP
350
D
  3
ACAD_LAYOUT
350
1A
  3
ACAD_MLINESTYLE
350
17
  3
ACAD_PLOTSETTINGS
350
19
  3
ACAD_PLOTSTYLENAME
350
E
  3
ACDBHEADERROUNDTRIPXREC
350
2F
  0
DICTIONARY
  5
52
330
1F
100
AcDbDictionary
280
     1
  3
ACAD_LAYOUTSELFREF
360
53
  0
DICTIONARY
  5
50
330
1B
100
AcDbDictionary
280
     1
  3
ACAD_LAYOUTSELFREF
360
51
  0
DICTIONARY
  5
D
102
{ACAD_REACTORS
330
C
102
}
330
C
100
AcDbDictionary
  0
DICTIONARY
  5
1A
102
{ACAD_REACTORS
330
C
102
}
330
C
100
AcDbDictionary
  0
DICTIONARY
  5
17
102
{ACAD_REACTORS
330
C
102
}
330
C
100
AcDbDictionary
  3
STANDARD
350
18
  0
DICTIONARY
  5
19
102
{ACAD_REACTORS
330
C
102
}
330
C
100
AcDbDictionary
  0
ACDBDICTIONARYWDFLT
  5
E
102
{ACAD_REACTORS
330
C
102
}
330
C
100
AcDbDictionary
281
     1
  3
Normal
350
F
100
AcDbDictionaryWithDefault
340
F
  0
DICTIONARY
  5
2F
102
{ACAD_REACTORS
330
C
102
}
330
C
100
AcDbDictionary
  3
CEPSNTYPE
350
39
  3
DIMSTYLEDATA
350
3D
  3
FINGERPRINTGUID
350
3A
  3
HYPERLINKBASE
350
32
  3
INSUNITS
350
38
  3
LAYOUTDICT
350
34
  3
LWETCUNION
350
37
  3
PLOTSETDICT
350
35
  3
PLOTSTYLNAMDICT
350
36
  3
PSVPSCALE
350
3C
  3
PUCSBASE
350
40
  3
PUCSORGBACK
350
46
  3
PUCSORGBOTTOM
350
42
  3
PUCSORGFRONT
350
45
  3
PUCSORGLEFT
350
43
  3
PUCSORGRIGHT
350
44
  3
PUCSORGTOP
350
41
  3
PUCSORTHOREF
350
3E
  3
PUCSORTHOVIEW
350
3F
  3
STYLESHEET
350
33
  3
TSTACKALIGN
350
30
  3
TSTACKSIZE
350
31
  3
UCSBASE
350
49
  3
UCSORGBACK
350
4F
  3
UCSORGBOTTOM
350
4B
  3
UCSORGFRONT
350
4E
  3
UCSORGLEFT
350
4C
  3
UCSORGRIGHT
350
4D
  3
UCSORGTOP
350
4A
  3
UCSORTHOREF
350
47
  3
UCSORTHOVIEW
350
48
  3
VERSIONGUID
350
3B
  0
XRECORD
  5
53
102
{ACAD_REACTORS
330
52
102
}
330
52
100
AcDbXrecord
340
1F
  0
XRECORD
  5
51
102
{ACAD_REACTORS
330
50
102
}
330
50
100
AcDbXrecord
340
1B
  0
MLINESTYLE
  5
18
102
{ACAD_REACTORS
330
17
102
}
330
17
100
AcDbMlineStyle
  2
STANDARD
 70
     0
  3

 62
   256
 51
90.0
 52
90.0
 71
     2
 49
0.5
 62
   256
  6
BYLAYER
 49
-0.5
 62
   256
  6
BYLAYER
  0
ACDBPLACEHOLDER
  5
F
102
{ACAD_REACTORS
330
E
102
}
330
E
100
AcDbPlaceHolder
280
     0
  0
XRECORD
  5
39
102
{ACAD_REACTORS
330
2F
102
}
330
2F
100
AcDbXrecord
 90
        0
  0
XRECORD
  5
3D
102
{ACAD_REACTORS
330
2F
102
}
330
2F
100
AcDbXrecord
1000
DSTYLE
1002
{
1070
   278
 70
    44
1002
}
  0
XRECORD
  5
3A
102
{ACAD_REACTORS
330
2F
102
}
330
2F
100
AcDbXrecord
  1
{705446A6-11D0-4548-8F8C-A97DCA50327D}
  0
XRECORD
  5
32
102
{ACAD_REACTORS
330
2F
102
}
330
2F
100
AcDbXrecord
  1

  0
XRECORD
  5
38
102
{ACAD_REACTORS
330
2F
102
}
330
2F
100
AcDbXrecord
 90
        4
  0
XRECORD
  5
34
102
{ACAD_REACTORS
330
2F
102
}
330
2F
100
AcDbXrecord
340
1A
  0
XRECORD
  5
37
102
{ACAD_REACTORS
330
2F
102
}
330
2F
100
AcDbXrecord
 90
    10781
  0
XRECORD
  5
35
102
{ACAD_REACTORS
330
2F
102
}
330
2F
100
AcDbXrecord
340
19
  0
XRECORD
  5
36
102
{ACAD_REACTORS
330
2F
102
}
330
2F
100
AcDbXrecord
340
E
  0
XRECORD
  5
3C
102
{ACAD_REACTORS
330
2F
102
}
330
2F
100
AcDbXrecord
 40
0.0
  0
XRECORD
  5
40
102
{ACAD_REACTORS
330
2F
102
}
330
2F
100
AcDbXrecord
340
0
  0
XRECORD
  5
46
102
{ACAD_REACTORS
330
2F
102
}
330
2F
100
AcDbXrecord
 10
0.0
 20
0.0
 30
0.0
  0
XRECORD
  5
42
102
{ACAD_REACTORS
330
2F
102
}
330
2F
100
AcDbXrecord
 10
0.0
 20
0.0
 30
0.0
  0
XRECORD
  5
45
102
{ACAD_REACTORS
330
2F
102
}
330
2F
100
AcDbXrecord
 10
0.0
 20
0.0
 30
0.0
  0
XRECORD
  5
43
102
{ACAD_REACTORS
330
2F
102
}
330
2F
100
AcDbXrecord
 10
0.0
 20
0.0
 30
0.0
  0
XRECORD
  5
44
102
{ACAD_REACTORS
330
2F
102
}
330
2F
100
AcDbXrecord
 10
0.0
 20
0.0
 30
0.0
  0
XRECORD
  5
41
102
{ACAD_REACTORS
330
2F
102
}
330
2F
100
AcDbXrecord
 10
0.0
 20
0.0
 30
0.0
  0
XRECORD
  5
3E
102
{ACAD_REACTORS
330
2F
102
}
330
2F
100
AcDbXrecord
340
0
  0
XRECORD
  5
3F
102
{ACAD_REACTORS
330
2F
102
}
330
2F
100
AcDbXrecord
 70
     0
  0
XRECORD
  5
33
102
{ACAD_REACTORS
330
2F
102
}
330
2F
100
AcDbXrecord
  1

  0
XRECORD
  5
30
102
{ACAD_REACTORS
330
2F
102
}
330
2F
100
AcDbXrecord
 90
        1
  0
XRECORD
  5
31
102
{ACAD_REACTORS
330
2F
102
}
330
2F
100
AcDbXrecord
 90
       70
  0
XRECORD
  5
49
102
{ACAD_REACTORS
330
2F
102
}
330
2F
100
AcDbXrecord
340
0
  0
XRECORD
  5
4F
102
{ACAD_REACTORS
330
2F
102
}
330
2F
100
AcDbXrecord
 10
0.0
 20
0.0
 30
0.0
  0
XRECORD
  5
4B
102
{ACAD_REACTORS
330
2F
102
}
330
2F
100
AcDbXrecord
 10
0.0
 20
0.0
 30
0.0
  0
XRECORD
  5
4E
102
{ACAD_REACTORS
330
2F
102
}
330
2F
100
AcDbXrecord
 10
0.0
 20
0.0
 30
0.0
  0
XRECORD
  5
4C
102
{ACAD_REACTORS
330
2F
102
}
330
2F
100
AcDbXrecord
 10
0.0
 20
0.0
 30
0.0
  0
XRECORD
  5
4D
102
{ACAD_REACTORS
330
2F
102
}
330
2F
100
AcDbXrecord
 10
0.0
 20
0.0
 30
0.0
  0
XRECORD
  5
4A
102
{ACAD_REACTORS
330
2F
102
}
330
2F
100
AcDbXrecord
 10
0.0
 20
0.0
 30
0.0
  0
XRECORD
  5
47
102
{ACAD_REACTORS
330
2F
102
}
330
2F
100
AcDbXrecord
340
0
  0
XRECORD
  5
48
102
{ACAD_REACTORS
330
2F
102
}
330
2F
100
AcDbXrecord
 70
     0
  0
XRECORD
  5
3B
102
{ACAD_REACTORS
330
2F
102
}
330
2F
100
AcDbXrecord
  1
{33328E3A-B6B8-4979-86B7-D70DEC2867C2}
  0
ENDSEC
  0
EOF
