  0
SECTION
  2
HEADER
  9
$ACADVER
  1
AC1014
  9
$EXTMIN
 10
70.16401489310567
 20
112.369642808922
 30
0.0
  9
$EXTMAX
 10
277.0834797641999
 20
227.1366601424358
 30
0.0
  9
$HANDSEED
  5
56
  9
$MEASUREMENT
 70
1
  0
ENDSEC
  0
SECTION
  2
TABLES
  0
TABLE
  2
VPORT
  5
8
330
0
100
AcDbSymbolTable
 70
     4
  0
VPORT
  5
2E
330
8
100
AcDbSymbolTableRecord
100
AcDbViewportTableRecord
  2
*ACTIVE
 70
     0
 10
0.0
 20
0.0
 11
1.0
 21
1.0
 12
209.9999999999999
 22
148.4999999999999
 13
0.0
 23
0.0
 14
10.0
 24
10.0
 15
10.0
 25
10.0
 16
0.0
 26
0.0
 36
1.0
 17
0.0
 27
0.0
 37
0.0
 40
340.9950045922664
 41
1.239944521497919
 42
50.0
 43
0.0
 44
0.0
 50
0.0
 51
0.0
 71
     0
 72
   100
 73
     1
 74
     3
 75
     0
 76
     0
 77
     0
 78
     0
  0
ENDTAB
  0
TABLE
  2
LTYPE
  5
5
330
0
100
AcDbSymbolTable
 70
     1
  0
LTYPE
  5
14
330
5
100
AcDbSymbolTableRecord
100
AcDbLinetypeTableRecord
  2
BYBLOCK
 70
     0
  3

 72
    65
 73
     0
 40
0.0
  0
LTYPE
  5
15
330
5
100
AcDbSymbolTableRecord
100
AcDbLinetypeTableRecord
  2
BYLAYER
 70
     0
  3

 72
    65
 73
     0
 40
0.0
  0
LTYPE
  5
16
330
5
100
AcDbSymbolTableRecord
100
AcDbLinetypeTableRecord
  2
CONTINUOUS
 70
     0
  3
Solid line
 72
    65
 73
     0
 40
0.0
  0
ENDTAB
  0
TABLE
  2
LAYER
  5
2
330
0
100
AcDbSymbolTable
 70
4
  0
LAYER
  5
10
330
2
100
AcDbSymbolTableRecord
100
AcDbLayerTableRecord
  2
0
 70
     0
 62
     7
  6
CONTINUOUS
  0
LAYER
  5
17d
100
AcDbSymbolTableRecord
100
AcDbLayerTableRecord
  2
C00-00-00-BLACK
 70
0
 62
7
  6
CONTINUOUS
  0
LAYER
  5
17e
100
AcDbSymbolTableRecord
100
AcDbLayerTableRecord
  2
CFF-FF-FF-WHITE
 70
0
 62
7
  6
CONTINUOUS
  0
ENDTAB
  0
TABLE
  2
STYLE
  5
3
330
0
100
AcDbSymbolTable
 70
     1
  0
STYLE
  5
11
330
3
100
AcDbSymbolTableRecord
100
AcDbTextStyleTableRecord
  2
STANDARD
 70
     0
 40
0.0
 41
1.0
 50
0.0
 71
     0
 42
2.5
  3
txt
  4

  0
ENDTAB
  0
TABLE
  2
VIEW
  5
6
330
0
100
AcDbSymbolTable
 70
     0
  0
ENDTAB
  0
TABLE
  2
UCS
  5
7
330
0
100
AcDbSymbolTable
 70
     0
  0
ENDTAB
  0
TABLE
  2
APPID
  5
9
330
0
100
AcDbSymbolTable
 70
     2
  0
APPID
  5
12
330
9
100
AcDbSymbolTableRecord
100
AcDbRegAppTableRecord
  2
ACAD
 70
     0
  0
APPID
  5
2B
330
9
100
AcDbSymbolTableRecord
100
AcDbRegAppTableRecord
  2
URBANX
 70
     0
  0
ENDTAB
  0
TABLE
  2
DIMSTYLE
  5
A
330
0
100
AcDbSymbolTable
 70
     1
  0
DIMSTYLE
105
27
330
A
100
AcDbSymbolTableRecord
100
AcDbDimStyleTableRecord
  2
ISO-25
 70
     0
  3

  4

  5

  6

  7

 40
1.0
 41
2.5
 42
0.625
 43
3.75
 44
1.25
 45
0.0
 46
0.0
 47
0.0
 48
0.0
140
2.5
141
2.5
142
0.0
143
0.03937007874016
144
1.0
145
0.0
146
1.0
147
0.625
 71
     0
 72
     0
 73
     0
 74
     0
 75
     0
 76
     0
 77
     1
 78
     8
170
     0
171
     3
172
     1
173
     0
174
     0
175
     0
176
     0
177
     0
178
     0
270
     2
271
     2
272
     2
273
     2
274
     3
340
11
275
     0
280
     0
281
     0
282
     0
283
     0
284
     8
285
     0
286
     0
287
     3
288
     0
  0
ENDTAB
  0
TABLE
  2
BLOCK_RECORD
  5
1
330
0
100
AcDbSymbolTable
 70
     1
  0
BLOCK_RECORD
  5
1F
102
{ACAD_XDICTIONARY
360
52
102
}
330
1
100
AcDbSymbolTableRecord
100
AcDbBlockTableRecord
  2
*MODEL_SPACE
  0
BLOCK_RECORD
  5
1B
102
{ACAD_XDICTIONARY
360
50
102
}
330
1
100
AcDbSymbolTableRecord
100
AcDbBlockTableRecord
  2
*PAPER_SPACE
  0
ENDTAB
  0
ENDSEC
  0
SECTION
  2
BLOCKS
  0
BLOCK
  5
20
330
1F
100
AcDbEntity
  8
0
100
AcDbBlockBegin
  2
*MODEL_SPACE
 70
     0
 10
0.0
 20
0.0
 30
0.0
  3
*MODEL_SPACE
  1

  0
ENDBLK
  5
21
330
1F
100
AcDbEntity
  8
0
100
AcDbBlockEnd
  0
BLOCK
  5
1C
330
1B
100
AcDbEntity
 67
     1
  8
0
100
AcDbBlockBegin
  2
*PAPER_SPACE
  1

  0
ENDBLK
  5
1D
330
1B
100
AcDbEntity
 67
     1
  8
0
100
AcDbBlockEnd
  0
ENDSEC
  0
SECTION
  2
ENTITIES
  0
LINE
  5
ff
100
AcDbEntity
  8
C00-00-00-BLACK
100
AcDbLine
 10
20
 20
20
 30
0.0
 11
170
 21
20
 31
0.0
  0
LINE
  5
100
100
AcDbEntity
  8
C00-00-00-BLACK
100
AcDbLine
 10
170
 20
20
 30
0.0
 11
170
 21
110
 31
0.0
  0
LINE
  5
101
100
AcDbEntity
  8
C00-00-00-BLACK
100
AcDbLine
 10
170
 20
110
 30
0.0
 11
20
 21
110
 31
0.0
  0
LINE
  5
102
100
AcDbEntity
  8
C00-00-00-BLACK
100
AcDbLine
 10
20
 20
110
 30
0.0
 11
20
 21
20
 31
0.0
  0
LINE
  5
103
100
AcDbEntity
  8
C00-00-00-BLACK
100
AcDbLine
 10
51.55
 20
27.5
 30
0.0
 11
51.55
 21
27.5
 31
0.0
  0
SPLINE
  5
104
100
AcDbEntity
  8
C00-00-00-BLACK
100
AcDbSpline
210
0.0
220
0.0
230
1.0
 70
     0
 71
     3
 72
     8
 73
4
 40
0.0
 40
0.0
 40
0.0
 40
0.0
 40
1.0
 40
1.0
 40
1.0
 40
1.0
 10
51.55
 20
27.5
 30
0.0
 10
51.55
 20
28.3559
 30
0.0
 10
50.8557
 20
29.0499
 30
0.0
 10
49.9999
 20
29.0499
 30
0.0
  0
SPLINE
  5
105
100
AcDbEntity
  8
C00-00-00-BLACK
100
AcDbSpline
210
0.0
220
0.0
230
1.0
 70
     0
 71
     3
 72
     8
 73
4
 40
0.0
 40
0.0
 40
0.0
 40
0.0
 40
1.0
 40
1.0
 40
1.0
 40
1.0
 10
49.9999
 20
29.0499
 30
0.0
 10
49.1441
 20
29.0499
 30
0.0
 10
48.4501
 20
28.3559
 30
0.0
 10
48.4501
 20
27.5
 30
0.0
  0
SPLINE
  5
106
100
AcDbEntity
  8
C00-00-00-BLACK
100
AcDbSpline
210
0.0
220
0.0
230
1.0
 70
     0
 71
     3
 72
     8
 73
4
 40
0.0
 40
0.0
 40
0.0
 40
0.0
 40
1.0
 40
1.0
 40
1.0
 40
1.0
 10
48.4501
 20
27.5
 30
0.0
 10
48.4501
 20
26.644
 30
0.0
 10
49.1441
 20
25.95
 30
0.0
 10
49.9999
 20
25.95
 30
0.0
  0
SPLINE
  5
107
100
AcDbEntity
  8
C00-00-00-BLACK
100
AcDbSpline
210
0.0
220
0.0
230
1.0
 70
     0
 71
     3
 72
     8
 73
4
 40
0.0
 40
0.0
 40
0.0
 40
0.0
 40
1.0
 40
1.0
 40
1.0
 40
1.0
 10
49.9999
 20
25.95
 30
0.0
 10
50.8557
 20
25.95
 30
0.0
 10
51.55
 20
26.644
 30
0.0
 10
51.55
 20
27.5
 30
0.0
  0
LINE
  5
108
100
AcDbEntity
  8
C00-00-00-BLACK
100
AcDbLine
 10
141.55
 20
27.5
 30
0.0
 11
141.55
 21
27.5
 31
0.0
  0
SPLINE
  5
109
100
AcDbEntity
  8
C00-00-00-BLACK
100
AcDbSpline
210
0.0
220
0.0
230
1.0
 70
     0
 71
     3
 72
     8
 73
4
 40
0.0
 40
0.0
 40
0.0
 40
0.0
 40
1.0
 40
1.0
 40
1.0
 40
1.0
 10
141.55
 20
27.5
 30
0.0
 10
141.55
 20
28.3559
 30
0.0
 10
140.856
 20
29.0499
 30
0.0
 10
140
 20
29.0499
 30
0.0
  0
SPLINE
  5
10a
100
AcDbEntity
  8
C00-00-00-BLACK
100
AcDbSpline
210
0.0
220
0.0
230
1.0
 70
     0
 71
     3
 72
     8
 73
4
 40
0.0
 40
0.0
 40
0.0
 40
0.0
 40
1.0
 40
1.0
 40
1.0
 40
1.0
 10
140
 20
29.0499
 30
0.0
 10
139.144
 20
29.0499
 30
0.0
 10
138.45
 20
28.3559
 30
0.0
 10
138.45
 20
27.5
 30
0.0
  0
SPLINE
  5
10b
100
AcDbEntity
  8
C00-00-00-BLACK
100
AcDbSpline
210
0.0
220
0.0
230
1.0
 70
     0
 71
     3
 72
     8
 73
4
 40
0.0
 40
0.0
 40
0.0
 40
0.0
 40
1.0
 40
1.0
 40
1.0
 40
1.0
 10
138.45
 20
27.5
 30
0.0
 10
138.45
 20
26.644
 30
0.0
 10
139.144
 20
25.95
 30
0.0
 10
140
 20
25.95
 30
0.0
  0
SPLINE
  5
10c
100
AcDbEntity
  8
C00-00-00-BLACK
100
AcDbSpline
210
0.0
220
0.0
230
1.0
 70
     0
 71
     3
 72
     8
 73
4
 40
0.0
 40
0.0
 40
0.0
 40
0.0
 40
1.0
 40
1.0
 40
1.0
 40
1.0
 10
140
 20
25.95
 30
0.0
 10
140.856
 20
25.95
 30
0.0
 10
141.55
 20
26.644
 30
0.0
 10
141.55
 20
27.5
 30
0.0
  0
LINE
  5
10d
100
AcDbEntity
  8
C00-00-00-BLACK
100
AcDbLine
 10
63.4499
 20
40.9998
 30
0.0
 11
66.5501
 21
40.9998
 31
0.0
  0
LINE
  5
10e
100
AcDbEntity
  8
C00-00-00-BLACK
100
AcDbLine
 10
66.5501
 20
40.9998
 30
0.0
 11
66.5501
 21
45.55
 31
0.0
  0
LINE
  5
10f
100
AcDbEntity
  8
C00-00-00-BLACK
100
AcDbLine
 10
66.5501
 20
45.55
 30
0.0
 11
63.4499
 21
45.55
 31
0.0
  0
LINE
  5
110
100
AcDbEntity
  8
C00-00-00-BLACK
100
AcDbLine
 10
63.4499
 20
45.55
 30
0.0
 11
63.4499
 21
40.9998
 31
0.0
  0
LINE
  5
111
100
AcDbEntity
  8
C00-00-00-BLACK
100
AcDbLine
 10
123.45
 20
40.9998
 30
0.0
 11
126.55
 21
40.9998
 31
0.0
  0
LINE
  5
112
100
AcDbEntity
  8
C00-00-00-BLACK
100
AcDbLine
 10
126.55
 20
40.9998
 30
0.0
 11
126.55
 21
45.55
 31
0.0
  0
LINE
  5
113
100
AcDbEntity
  8
C00-00-00-BLACK
100
AcDbLine
 10
126.55
 20
45.55
 30
0.0
 11
123.45
 21
45.55
 31
0.0
  0
LINE
  5
114
100
AcDbEntity
  8
C00-00-00-BLACK
100
AcDbLine
 10
123.45
 20
45.55
 30
0.0
 11
123.45
 21
40.9998
 31
0.0
  0
LINE
  5
115
100
AcDbEntity
  8
C00-00-00-BLACK
100
AcDbLine
 10
51.55
 20
102.5
 30
0.0
 11
51.55
 21
102.5
 31
0.0
  0
SPLINE
  5
116
100
AcDbEntity
  8
C00-00-00-BLACK
100
AcDbSpline
210
0.0
220
0.0
230
1.0
 70
     0
 71
     3
 72
     8
 73
4
 40
0.0
 40
0.0
 40
0.0
 40
0.0
 40
1.0
 40
1.0
 40
1.0
 40
1.0
 10
51.55
 20
102.5
 30
0.0
 10
51.55
 20
103.356
 30
0.0
 10
50.8557
 20
104.05
 30
0.0
 10
49.9999
 20
104.05
 30
0.0
  0
SPLINE
  5
117
100
AcDbEntity
  8
C00-00-00-BLACK
100
AcDbSpline
210
0.0
220
0.0
230
1.0
 70
     0
 71
     3
 72
     8
 73
4
 40
0.0
 40
0.0
 40
0.0
 40
0.0
 40
1.0
 40
1.0
 40
1.0
 40
1.0
 10
49.9999
 20
104.05
 30
0.0
 10
49.1441
 20
104.05
 30
0.0
 10
48.4501
 20
103.356
 30
0.0
 10
48.4501
 20
102.5
 30
0.0
  0
SPLINE
  5
118
100
AcDbEntity
  8
C00-00-00-BLACK
100
AcDbSpline
210
0.0
220
0.0
230
1.0
 70
     0
 71
     3
 72
     8
 73
4
 40
0.0
 40
0.0
 40
0.0
 40
0.0
 40
1.0
 40
1.0
 40
1.0
 40
1.0
 10
48.4501
 20
102.5
 30
0.0
 10
48.4501
 20
101.644
 30
0.0
 10
49.1441
 20
100.95
 30
0.0
 10
49.9999
 20
100.95
 30
0.0
  0
SPLINE
  5
119
100
AcDbEntity
  8
C00-00-00-BLACK
100
AcDbSpline
210
0.0
220
0.0
230
1.0
 70
     0
 71
     3
 72
     8
 73
4
 40
0.0
 40
0.0
 40
0.0
 40
0.0
 40
1.0
 40
1.0
 40
1.0
 40
1.0
 10
49.9999
 20
100.95
 30
0.0
 10
50.8557
 20
100.95
 30
0.0
 10
51.55
 20
101.644
 30
0.0
 10
51.55
 20
102.5
 30
0.0
  0
LINE
  5
11a
100
AcDbEntity
  8
C00-00-00-BLACK
100
AcDbLine
 10
141.55
 20
102.5
 30
0.0
 11
141.55
 21
102.5
 31
0.0
  0
SPLINE
  5
11b
100
AcDbEntity
  8
C00-00-00-BLACK
100
AcDbSpline
210
0.0
220
0.0
230
1.0
 70
     0
 71
     3
 72
     8
 73
4
 40
0.0
 40
0.0
 40
0.0
 40
0.0
 40
1.0
 40
1.0
 40
1.0
 40
1.0
 10
141.55
 20
102.5
 30
0.0
 10
141.55
 20
103.356
 30
0.0
 10
140.856
 20
104.05
 30
0.0
 10
140
 20
104.05
 30
0.0
  0
SPLINE
  5
11c
100
AcDbEntity
  8
C00-00-00-BLACK
100
AcDbSpline
210
0.0
220
0.0
230
1.0
 70
     0
 71
     3
 72
     8
 73
4
 40
0.0
 40
0.0
 40
0.0
 40
0.0
 40
1.0
 40
1.0
 40
1.0
 40
1.0
 10
140
 20
104.05
 30
0.0
 10
139.144
 20
104.05
 30
0.0
 10
138.45
 20
103.356
 30
0.0
 10
138.45
 20
102.5
 30
0.0
  0
SPLINE
  5
11d
100
AcDbEntity
  8
C00-00-00-BLACK
100
AcDbSpline
210
0.0
220
0.0
230
1.0
 70
     0
 71
     3
 72
     8
 73
4
 40
0.0
 40
0.0
 40
0.0
 40
0.0
 40
1.0
 40
1.0
 40
1.0
 40
1.0
 10
138.45
 20
102.5
 30
0.0
 10
138.45
 20
101.644
 30
0.0
 10
139.144
 20
100.95
 30
0.0
 10
140
 20
100.95
 30
0.0
  0
SPLINE
  5
11e
100
AcDbEntity
  8
C00-00-00-BLACK
100
AcDbSpline
210
0.0
220
0.0
230
1.0
 70
     0
 71
     3
 72
     8
 73
4
 40
0.0
 40
0.0
 40
0.0
 40
0.0
 40
1.0
 40
1.0
 40
1.0
 40
1.0
 10
140
 20
100.95
 30
0.0
 10
140.856
 20
100.95
 30
0.0
 10
141.55
 20
101.644
 30
0.0
 10
141.55
 20
102.5
 30
0.0
  0
LINE
  5
11f
100
AcDbEntity
  8
C00-00-00-BLACK
100
AcDbLine
 10
66.5501
 20
87.5002
 30
0.0
 11
66.5501
 21
87.5002
 31
0.0
  0
SPLINE
  5
120
100
AcDbEntity
  8
C00-00-00-BLACK
100
AcDbSpline
210
0.0
220
0.0
230
1.0
 70
     0
 71
     3
 72
     8
 73
4
 40
0.0
 40
0.0
 40
0.0
 40
0.0
 40
1.0
 40
1.0
 40
1.0
 40
1.0
 10
66.5501
 20
87.5002
 30
0.0
 10
66.5501
 20
88.356
 30
0.0
 10
65.8558
 20
89.0499
 30
0.0
 10
65
 20
89.0499
 30
0.0
  0
SPLINE
  5
121
100
AcDbEntity
  8
C00-00-00-BLACK
100
AcDbSpline
210
0.0
220
0.0
230
1.0
 70
     0
 71
     3
 72
     8
 73
4
 40
0.0
 40
0.0
 40
0.0
 40
0.0
 40
1.0
 40
1.0
 40
1.0
 40
1.0
 10
65
 20
89.0499
 30
0.0
 10
64.1442
 20
89.0499
 30
0.0
 10
63.4499
 20
88.356
 30
0.0
 10
63.4499
 20
87.5002
 30
0.0
  0
SPLINE
  5
122
100
AcDbEntity
  8
C00-00-00-BLACK
100
AcDbSpline
210
0.0
220
0.0
230
1.0
 70
     0
 71
     3
 72
     8
 73
4
 40
0.0
 40
0.0
 40
0.0
 40
0.0
 40
1.0
 40
1.0
 40
1.0
 40
1.0
 10
63.4499
 20
87.5002
 30
0.0
 10
63.4499
 20
86.644
 30
0.0
 10
64.1442
 20
85.9501
 30
0.0
 10
65
 20
85.9501
 30
0.0
  0
SPLINE
  5
123
100
AcDbEntity
  8
C00-00-00-BLACK
100
AcDbSpline
210
0.0
220
0.0
230
1.0
 70
     0
 71
     3
 72
     8
 73
4
 40
0.0
 40
0.0
 40
0.0
 40
0.0
 40
1.0
 40
1.0
 40
1.0
 40
1.0
 10
65
 20
85.9501
 30
0.0
 10
65.8558
 20
85.9501
 30
0.0
 10
66.5501
 20
86.644
 30
0.0
 10
66.5501
 20
87.5002
 30
0.0
  0
LINE
  5
124
100
AcDbEntity
  8
C00-00-00-BLACK
100
AcDbLine
 10
126.55
 20
87.5002
 30
0.0
 11
126.55
 21
87.5002
 31
0.0
  0
SPLINE
  5
125
100
AcDbEntity
  8
C00-00-00-BLACK
100
AcDbSpline
210
0.0
220
0.0
230
1.0
 70
     0
 71
     3
 72
     8
 73
4
 40
0.0
 40
0.0
 40
0.0
 40
0.0
 40
1.0
 40
1.0
 40
1.0
 40
1.0
 10
126.55
 20
87.5002
 30
0.0
 10
126.55
 20
88.356
 30
0.0
 10
125.856
 20
89.0499
 30
0.0
 10
125
 20
89.0499
 30
0.0
  0
SPLINE
  5
126
100
AcDbEntity
  8
C00-00-00-BLACK
100
AcDbSpline
210
0.0
220
0.0
230
1.0
 70
     0
 71
     3
 72
     8
 73
4
 40
0.0
 40
0.0
 40
0.0
 40
0.0
 40
1.0
 40
1.0
 40
1.0
 40
1.0
 10
125
 20
89.0499
 30
0.0
 10
124.144
 20
89.0499
 30
0.0
 10
123.45
 20
88.356
 30
0.0
 10
123.45
 20
87.5002
 30
0.0
  0
SPLINE
  5
127
100
AcDbEntity
  8
C00-00-00-BLACK
100
AcDbSpline
210
0.0
220
0.0
230
1.0
 70
     0
 71
     3
 72
     8
 73
4
 40
0.0
 40
0.0
 40
0.0
 40
0.0
 40
1.0
 40
1.0
 40
1.0
 40
1.0
 10
123.45
 20
87.5002
 30
0.0
 10
123.45
 20
86.644
 30
0.0
 10
124.144
 20
85.9501
 30
0.0
 10
125
 20
85.9501
 30
0.0
  0
SPLINE
  5
128
100
AcDbEntity
  8
C00-00-00-BLACK
100
AcDbSpline
210
0.0
220
0.0
230
1.0
 70
     0
 71
     3
 72
     8
 73
4
 40
0.0
 40
0.0
 40
0.0
 40
0.0
 40
1.0
 40
1.0
 40
1.0
 40
1.0
 10
125
 20
85.9501
 30
0.0
 10
125.856
 20
85.9501
 30
0.0
 10
126.55
 20
86.644
 30
0.0
 10
126.55
 20
87.5002
 30
0.0
  0
LINE
  5
129
100
AcDbEntity
  8
C00-00-00-BLACK
100
AcDbLine
 10
172
 20
20
 30
0.0
 11
187
 21
20
 31
0.0
  0
LINE
  5
12a
100
AcDbEntity
  8
C00-00-00-BLACK
100
AcDbLine
 10
187
 20
20
 30
0.0
 11
187
 21
49.9999
 31
0.0
  0
LINE
  5
12b
100
AcDbEntity
  8
C00-00-00-BLACK
100
AcDbLine
 10
187
 20
49.9999
 30
0.0
 11
172
 21
49.9999
 31
0.0
  0
LINE
  5
12c
100
AcDbEntity
  8
C00-00-00-BLACK
100
AcDbLine
 10
172
 20
49.9999
 30
0.0
 11
172
 21
20
 31
0.0
  0
LINE
  5
12d
100
AcDbEntity
  8
C00-00-00-BLACK
100
AcDbLine
 10
181.05
 20
27.5
 30
0.0
 11
181.05
 21
27.5
 31
0.0
  0
SPLINE
  5
12e
100
AcDbEntity
  8
C00-00-00-BLACK
100
AcDbSpline
210
0.0
220
0.0
230
1.0
 70
     0
 71
     3
 72
     8
 73
4
 40
0.0
 40
0.0
 40
0.0
 40
0.0
 40
1.0
 40
1.0
 40
1.0
 40
1.0
 10
181.05
 20
27.5
 30
0.0
 10
181.05
 20
28.3559
 30
0.0
 10
180.356
 20
29.0499
 30
0.0
 10
179.5
 20
29.0499
 30
0.0
  0
SPLINE
  5
12f
100
AcDbEntity
  8
C00-00-00-BLACK
100
AcDbSpline
210
0.0
220
0.0
230
1.0
 70
     0
 71
     3
 72
     8
 73
4
 40
0.0
 40
0.0
 40
0.0
 40
0.0
 40
1.0
 40
1.0
 40
1.0
 40
1.0
 10
179.5
 20
29.0499
 30
0.0
 10
178.644
 20
29.0499
 30
0.0
 10
177.95
 20
28.3559
 30
0.0
 10
177.95
 20
27.5
 30
0.0
  0
SPLINE
  5
130
100
AcDbEntity
  8
C00-00-00-BLACK
100
AcDbSpline
210
0.0
220
0.0
230
1.0
 70
     0
 71
     3
 72
     8
 73
4
 40
0.0
 40
0.0
 40
0.0
 40
0.0
 40
1.0
 40
1.0
 40
1.0
 40
1.0
 10
177.95
 20
27.5
 30
0.0
 10
177.95
 20
26.644
 30
0.0
 10
178.644
 20
25.95
 30
0.0
 10
179.5
 20
25.95
 30
0.0
  0
SPLINE
  5
131
100
AcDbEntity
  8
C00-00-00-BLACK
100
AcDbSpline
210
0.0
220
0.0
230
1.0
 70
     0
 71
     3
 72
     8
 73
4
 40
0.0
 40
0.0
 40
0.0
 40
0.0
 40
1.0
 40
1.0
 40
1.0
 40
1.0
 10
179.5
 20
25.95
 30
0.0
 10
180.356
 20
25.95
 30
0.0
 10
181.05
 20
26.644
 30
0.0
 10
181.05
 20
27.5
 30
0.0
  0
LINE
  5
132
100
AcDbEntity
  8
C00-00-00-BLACK
100
AcDbLine
 10
181.05
 20
42.5002
 30
0.0
 11
181.05
 21
42.5002
 31
0.0
  0
SPLINE
  5
133
100
AcDbEntity
  8
C00-00-00-BLACK
100
AcDbSpline
210
0.0
220
0.0
230
1.0
 70
     0
 71
     3
 72
     8
 73
4
 40
0.0
 40
0.0
 40
0.0
 40
0.0
 40
1.0
 40
1.0
 40
1.0
 40
1.0
 10
181.05
 20
42.5002
 30
0.0
 10
181.05
 20
43.356
 30
0.0
 10
180.356
 20
44.0499
 30
0.0
 10
179.5
 20
44.0499
 30
0.0
  0
SPLINE
  5
134
100
AcDbEntity
  8
C00-00-00-BLACK
100
AcDbSpline
210
0.0
220
0.0
230
1.0
 70
     0
 71
     3
 72
     8
 73
4
 40
0.0
 40
0.0
 40
0.0
 40
0.0
 40
1.0
 40
1.0
 40
1.0
 40
1.0
 10
179.5
 20
44.0499
 30
0.0
 10
178.644
 20
44.0499
 30
0.0
 10
177.95
 20
43.356
 30
0.0
 10
177.95
 20
42.5002
 30
0.0
  0
SPLINE
  5
135
100
AcDbEntity
  8
C00-00-00-BLACK
100
AcDbSpline
210
0.0
220
0.0
230
1.0
 70
     0
 71
     3
 72
     8
 73
4
 40
0.0
 40
0.0
 40
0.0
 40
0.0
 40
1.0
 40
1.0
 40
1.0
 40
1.0
 10
177.95
 20
42.5002
 30
0.0
 10
177.95
 20
41.644
 30
0.0
 10
178.644
 20
40.9501
 30
0.0
 10
179.5
 20
40.9501
 30
0.0
  0
SPLINE
  5
136
100
AcDbEntity
  8
C00-00-00-BLACK
100
AcDbSpline
210
0.0
220
0.0
230
1.0
 70
     0
 71
     3
 72
     8
 73
4
 40
0.0
 40
0.0
 40
0.0
 40
0.0
 40
1.0
 40
1.0
 40
1.0
 40
1.0
 10
179.5
 20
40.9501
 30
0.0
 10
180.356
 20
40.9501
 30
0.0
 10
181.05
 20
41.644
 30
0.0
 10
181.05
 20
42.5002
 30
0.0
  0
LINE
  5
137
100
AcDbEntity
  8
C00-00-00-BLACK
100
AcDbLine
 10
172
 20
51
 30
0.0
 11
187
 21
51
 31
0.0
  0
LINE
  5
138
100
AcDbEntity
  8
C00-00-00-BLACK
100
AcDbLine
 10
187
 20
51
 30
0.0
 11
187
 21
80.9999
 31
0.0
  0
LINE
  5
139
100
AcDbEntity
  8
C00-00-00-BLACK
100
AcDbLine
 10
187
 20
80.9999
 30
0.0
 11
172
 21
80.9999
 31
0.0
  0
LINE
  5
13a
100
AcDbEntity
  8
C00-00-00-BLACK
100
AcDbLine
 10
172
 20
80.9999
 30
0.0
 11
172
 21
51
 31
0.0
  0
LINE
  5
13b
100
AcDbEntity
  8
C00-00-00-BLACK
100
AcDbLine
 10
181.05
 20
58.5001
 30
0.0
 11
181.05
 21
58.5001
 31
0.0
  0
SPLINE
  5
13c
100
AcDbEntity
  8
C00-00-00-BLACK
100
AcDbSpline
210
0.0
220
0.0
230
1.0
 70
     0
 71
     3
 72
     8
 73
4
 40
0.0
 40
0.0
 40
0.0
 40
0.0
 40
1.0
 40
1.0
 40
1.0
 40
1.0
 10
181.05
 20
58.5001
 30
0.0
 10
181.05
 20
59.3559
 30
0.0
 10
180.356
 20
60.0498
 30
0.0
 10
179.5
 20
60.0498
 30
0.0
  0
SPLINE
  5
13d
100
AcDbEntity
  8
C00-00-00-BLACK
100
AcDbSpline
210
0.0
220
0.0
230
1.0
 70
     0
 71
     3
 72
     8
 73
4
 40
0.0
 40
0.0
 40
0.0
 40
0.0
 40
1.0
 40
1.0
 40
1.0
 40
1.0
 10
179.5
 20
60.0498
 30
0.0
 10
178.644
 20
60.0498
 30
0.0
 10
177.95
 20
59.3559
 30
0.0
 10
177.95
 20
58.5001
 30
0.0
  0
SPLINE
  5
13e
100
AcDbEntity
  8
C00-00-00-BLACK
100
AcDbSpline
210
0.0
220
0.0
230
1.0
 70
     0
 71
     3
 72
     8
 73
4
 40
0.0
 40
0.0
 40
0.0
 40
0.0
 40
1.0
 40
1.0
 40
1.0
 40
1.0
 10
177.95
 20
58.5001
 30
0.0
 10
177.95
 20
57.6442
 30
0.0
 10
178.644
 20
56.95
 30
0.0
 10
179.5
 20
56.95
 30
0.0
  0
SPLINE
  5
13f
100
AcDbEntity
  8
C00-00-00-BLACK
100
AcDbSpline
210
0.0
220
0.0
230
1.0
 70
     0
 71
     3
 72
     8
 73
4
 40
0.0
 40
0.0
 40
0.0
 40
0.0
 40
1.0
 40
1.0
 40
1.0
 40
1.0
 10
179.5
 20
56.95
 30
0.0
 10
180.356
 20
56.95
 30
0.0
 10
181.05
 20
57.6442
 30
0.0
 10
181.05
 20
58.5001
 30
0.0
  0
LINE
  5
140
100
AcDbEntity
  8
C00-00-00-BLACK
100
AcDbLine
 10
181.05
 20
73.4998
 30
0.0
 11
181.05
 21
73.4998
 31
0.0
  0
SPLINE
  5
141
100
AcDbEntity
  8
C00-00-00-BLACK
100
AcDbSpline
210
0.0
220
0.0
230
1.0
 70
     0
 71
     3
 72
     8
 73
4
 40
0.0
 40
0.0
 40
0.0
 40
0.0
 40
1.0
 40
1.0
 40
1.0
 40
1.0
 10
181.05
 20
73.4998
 30
0.0
 10
181.05
 20
74.356
 30
0.0
 10
180.356
 20
75.0499
 30
0.0
 10
179.5
 20
75.0499
 30
0.0
  0
SPLINE
  5
142
100
AcDbEntity
  8
C00-00-00-BLACK
100
AcDbSpline
210
0.0
220
0.0
230
1.0
 70
     0
 71
     3
 72
     8
 73
4
 40
0.0
 40
0.0
 40
0.0
 40
0.0
 40
1.0
 40
1.0
 40
1.0
 40
1.0
 10
179.5
 20
75.0499
 30
0.0
 10
178.644
 20
75.0499
 30
0.0
 10
177.95
 20
74.356
 30
0.0
 10
177.95
 20
73.4998
 30
0.0
  0
SPLINE
  5
143
100
AcDbEntity
  8
C00-00-00-BLACK
100
AcDbSpline
210
0.0
220
0.0
230
1.0
 70
     0
 71
     3
 72
     8
 73
4
 40
0.0
 40
0.0
 40
0.0
 40
0.0
 40
1.0
 40
1.0
 40
1.0
 40
1.0
 10
177.95
 20
73.4998
 30
0.0
 10
177.95
 20
72.644
 30
0.0
 10
178.644
 20
71.9501
 30
0.0
 10
179.5
 20
71.9501
 30
0.0
  0
SPLINE
  5
144
100
AcDbEntity
  8
C00-00-00-BLACK
100
AcDbSpline
210
0.0
220
0.0
230
1.0
 70
     0
 71
     3
 72
     8
 73
4
 40
0.0
 40
0.0
 40
0.0
 40
0.0
 40
1.0
 40
1.0
 40
1.0
 40
1.0
 10
179.5
 20
71.9501
 30
0.0
 10
180.356
 20
71.9501
 30
0.0
 10
181.05
 20
72.644
 30
0.0
 10
181.05
 20
73.4998
 30
0.0
  0
LINE
  5
145
100
AcDbEntity
  8
C00-00-00-BLACK
100
AcDbLine
 10
172
 20
82
 30
0.0
 11
187
 21
82
 31
0.0
  0
LINE
  5
146
100
AcDbEntity
  8
C00-00-00-BLACK
100
AcDbLine
 10
187
 20
82
 30
0.0
 11
187
 21
112
 31
0.0
  0
LINE
  5
147
100
AcDbEntity
  8
C00-00-00-BLACK
100
AcDbLine
 10
187
 20
112
 30
0.0
 11
172
 21
112
 31
0.0
  0
LINE
  5
148
100
AcDbEntity
  8
C00-00-00-BLACK
100
AcDbLine
 10
172
 20
112
 30
0.0
 11
172
 21
82
 31
0.0
  0
LINE
  5
149
100
AcDbEntity
  8
C00-00-00-BLACK
100
AcDbLine
 10
181.05
 20
89.5001
 30
0.0
 11
181.05
 21
89.5001
 31
0.0
  0
SPLINE
  5
14a
100
AcDbEntity
  8
C00-00-00-BLACK
100
AcDbSpline
210
0.0
220
0.0
230
1.0
 70
     0
 71
     3
 72
     8
 73
4
 40
0.0
 40
0.0
 40
0.0
 40
0.0
 40
1.0
 40
1.0
 40
1.0
 40
1.0
 10
181.05
 20
89.5001
 30
0.0
 10
181.05
 20
90.3559
 30
0.0
 10
180.356
 20
91.0502
 30
0.0
 10
179.5
 20
91.0502
 30
0.0
  0
SPLINE
  5
14b
100
AcDbEntity
  8
C00-00-00-BLACK
100
AcDbSpline
210
0.0
220
0.0
230
1.0
 70
     0
 71
     3
 72
     8
 73
4
 40
0.0
 40
0.0
 40
0.0
 40
0.0
 40
1.0
 40
1.0
 40
1.0
 40
1.0
 10
179.5
 20
91.0502
 30
0.0
 10
178.644
 20
91.0502
 30
0.0
 10
177.95
 20
90.3559
 30
0.0
 10
177.95
 20
89.5001
 30
0.0
  0
SPLINE
  5
14c
100
AcDbEntity
  8
C00-00-00-BLACK
100
AcDbSpline
210
0.0
220
0.0
230
1.0
 70
     0
 71
     3
 72
     8
 73
4
 40
0.0
 40
0.0
 40
0.0
 40
0.0
 40
1.0
 40
1.0
 40
1.0
 40
1.0
 10
177.95
 20
89.5001
 30
0.0
 10
177.95
 20
88.6439
 30
0.0
 10
178.644
 20
87.95
 30
0.0
 10
179.5
 20
87.95
 30
0.0
  0
SPLINE
  5
14d
100
AcDbEntity
  8
C00-00-00-BLACK
100
AcDbSpline
210
0.0
220
0.0
230
1.0
 70
     0
 71
     3
 72
     8
 73
4
 40
0.0
 40
0.0
 40
0.0
 40
0.0
 40
1.0
 40
1.0
 40
1.0
 40
1.0
 10
179.5
 20
87.95
 30
0.0
 10
180.356
 20
87.95
 30
0.0
 10
181.05
 20
88.6439
 30
0.0
 10
181.05
 20
89.5001
 30
0.0
  0
LINE
  5
14e
100
AcDbEntity
  8
C00-00-00-BLACK
100
AcDbLine
 10
181.05
 20
104.5
 30
0.0
 11
181.05
 21
104.5
 31
0.0
  0
SPLINE
  5
14f
100
AcDbEntity
  8
C00-00-00-BLACK
100
AcDbSpline
210
0.0
220
0.0
230
1.0
 70
     0
 71
     3
 72
     8
 73
4
 40
0.0
 40
0.0
 40
0.0
 40
0.0
 40
1.0
 40
1.0
 40
1.0
 40
1.0
 10
181.05
 20
104.5
 30
0.0
 10
181.05
 20
105.356
 30
0.0
 10
180.356
 20
106.05
 30
0.0
 10
179.5
 20
106.05
 30
0.0
  0
SPLINE
  5
150
100
AcDbEntity
  8
C00-00-00-BLACK
100
AcDbSpline
210
0.0
220
0.0
230
1.0
 70
     0
 71
     3
 72
     8
 73
4
 40
0.0
 40
0.0
 40
0.0
 40
0.0
 40
1.0
 40
1.0
 40
1.0
 40
1.0
 10
179.5
 20
106.05
 30
0.0
 10
178.644
 20
106.05
 30
0.0
 10
177.95
 20
105.356
 30
0.0
 10
177.95
 20
104.5
 30
0.0
  0
SPLINE
  5
151
100
AcDbEntity
  8
C00-00-00-BLACK
100
AcDbSpline
210
0.0
220
0.0
230
1.0
 70
     0
 71
     3
 72
     8
 73
4
 40
0.0
 40
0.0
 40
0.0
 40
0.0
 40
1.0
 40
1.0
 40
1.0
 40
1.0
 10
177.95
 20
104.5
 30
0.0
 10
177.95
 20
103.644
 30
0.0
 10
178.644
 20
102.95
 30
0.0
 10
179.5
 20
102.95
 30
0.0
  0
SPLINE
  5
152
100
AcDbEntity
  8
C00-00-00-BLACK
100
AcDbSpline
210
0.0
220
0.0
230
1.0
 70
     0
 71
     3
 72
     8
 73
4
 40
0.0
 40
0.0
 40
0.0
 40
0.0
 40
1.0
 40
1.0
 40
1.0
 40
1.0
 10
179.5
 20
102.95
 30
0.0
 10
180.356
 20
102.95
 30
0.0
 10
181.05
 20
103.644
 30
0.0
 10
181.05
 20
104.5
 30
0.0
  0
LINE
  5
153
100
AcDbEntity
  8
C00-00-00-BLACK
100
AcDbLine
 10
188
 20
20
 30
0.0
 11
203
 21
20
 31
0.0
  0
LINE
  5
154
100
AcDbEntity
  8
C00-00-00-BLACK
100
AcDbLine
 10
203
 20
20
 30
0.0
 11
203
 21
49.9999
 31
0.0
  0
LINE
  5
155
100
AcDbEntity
  8
C00-00-00-BLACK
100
AcDbLine
 10
203
 20
49.9999
 30
0.0
 11
188
 21
49.9999
 31
0.0
  0
LINE
  5
156
100
AcDbEntity
  8
C00-00-00-BLACK
100
AcDbLine
 10
188
 20
49.9999
 30
0.0
 11
188
 21
20
 31
0.0
  0
LINE
  5
157
100
AcDbEntity
  8
C00-00-00-BLACK
100
AcDbLine
 10
197.05
 20
27.5
 30
0.0
 11
197.05
 21
27.5
 31
0.0
  0
SPLINE
  5
158
100
AcDbEntity
  8
C00-00-00-BLACK
100
AcDbSpline
210
0.0
220
0.0
230
1.0
 70
     0
 71
     3
 72
     8
 73
4
 40
0.0
 40
0.0
 40
0.0
 40
0.0
 40
1.0
 40
1.0
 40
1.0
 40
1.0
 10
197.05
 20
27.5
 30
0.0
 10
197.05
 20
28.3559
 30
0.0
 10
196.356
 20
29.0499
 30
0.0
 10
195.5
 20
29.0499
 30
0.0
  0
SPLINE
  5
159
100
AcDbEntity
  8
C00-00-00-BLACK
100
AcDbSpline
210
0.0
220
0.0
230
1.0
 70
     0
 71
     3
 72
     8
 73
4
 40
0.0
 40
0.0
 40
0.0
 40
0.0
 40
1.0
 40
1.0
 40
1.0
 40
1.0
 10
195.5
 20
29.0499
 30
0.0
 10
194.644
 20
29.0499
 30
0.0
 10
193.95
 20
28.3559
 30
0.0
 10
193.95
 20
27.5
 30
0.0
  0
SPLINE
  5
15a
100
AcDbEntity
  8
C00-00-00-BLACK
100
AcDbSpline
210
0.0
220
0.0
230
1.0
 70
     0
 71
     3
 72
     8
 73
4
 40
0.0
 40
0.0
 40
0.0
 40
0.0
 40
1.0
 40
1.0
 40
1.0
 40
1.0
 10
193.95
 20
27.5
 30
0.0
 10
193.95
 20
26.644
 30
0.0
 10
194.644
 20
25.95
 30
0.0
 10
195.5
 20
25.95
 30
0.0
  0
SPLINE
  5
15b
100
AcDbEntity
  8
C00-00-00-BLACK
100
AcDbSpline
210
0.0
220
0.0
230
1.0
 70
     0
 71
     3
 72
     8
 73
4
 40
0.0
 40
0.0
 40
0.0
 40
0.0
 40
1.0
 40
1.0
 40
1.0
 40
1.0
 10
195.5
 20
25.95
 30
0.0
 10
196.356
 20
25.95
 30
0.0
 10
197.05
 20
26.644
 30
0.0
 10
197.05
 20
27.5
 30
0.0
  0
LINE
  5
15c
100
AcDbEntity
  8
C00-00-00-BLACK
100
AcDbLine
 10
197.05
 20
42.5002
 30
0.0
 11
197.05
 21
42.5002
 31
0.0
  0
SPLINE
  5
15d
100
AcDbEntity
  8
C00-00-00-BLACK
100
AcDbSpline
210
0.0
220
0.0
230
1.0
 70
     0
 71
     3
 72
     8
 73
4
 40
0.0
 40
0.0
 40
0.0
 40
0.0
 40
1.0
 40
1.0
 40
1.0
 40
1.0
 10
197.05
 20
42.5002
 30
0.0
 10
197.05
 20
43.356
 30
0.0
 10
196.356
 20
44.0499
 30
0.0
 10
195.5
 20
44.0499
 30
0.0
  0
SPLINE
  5
15e
100
AcDbEntity
  8
C00-00-00-BLACK
100
AcDbSpline
210
0.0
220
0.0
230
1.0
 70
     0
 71
     3
 72
     8
 73
4
 40
0.0
 40
0.0
 40
0.0
 40
0.0
 40
1.0
 40
1.0
 40
1.0
 40
1.0
 10
195.5
 20
44.0499
 30
0.0
 10
194.644
 20
44.0499
 30
0.0
 10
193.95
 20
43.356
 30
0.0
 10
193.95
 20
42.5002
 30
0.0
  0
SPLINE
  5
15f
100
AcDbEntity
  8
C00-00-00-BLACK
100
AcDbSpline
210
0.0
220
0.0
230
1.0
 70
     0
 71
     3
 72
     8
 73
4
 40
0.0
 40
0.0
 40
0.0
 40
0.0
 40
1.0
 40
1.0
 40
1.0
 40
1.0
 10
193.95
 20
42.5002
 30
0.0
 10
193.95
 20
41.644
 30
0.0
 10
194.644
 20
40.9501
 30
0.0
 10
195.5
 20
40.9501
 30
0.0
  0
SPLINE
  5
160
100
AcDbEntity
  8
C00-00-00-BLACK
100
AcDbSpline
210
0.0
220
0.0
230
1.0
 70
     0
 71
     3
 72
     8
 73
4
 40
0.0
 40
0.0
 40
0.0
 40
0.0
 40
1.0
 40
1.0
 40
1.0
 40
1.0
 10
195.5
 20
40.9501
 30
0.0
 10
196.356
 20
40.9501
 30
0.0
 10
197.05
 20
41.644
 30
0.0
 10
197.05
 20
42.5002
 30
0.0
  0
LINE
  5
161
100
AcDbEntity
  8
C00-00-00-BLACK
100
AcDbLine
 10
188
 20
51
 30
0.0
 11
203
 21
51
 31
0.0
  0
LINE
  5
162
100
AcDbEntity
  8
C00-00-00-BLACK
100
AcDbLine
 10
203
 20
51
 30
0.0
 11
203
 21
80.9999
 31
0.0
  0
LINE
  5
163
100
AcDbEntity
  8
C00-00-00-BLACK
100
AcDbLine
 10
203
 20
80.9999
 30
0.0
 11
188
 21
80.9999
 31
0.0
  0
LINE
  5
164
100
AcDbEntity
  8
C00-00-00-BLACK
100
AcDbLine
 10
188
 20
80.9999
 30
0.0
 11
188
 21
51
 31
0.0
  0
LINE
  5
165
100
AcDbEntity
  8
C00-00-00-BLACK
100
AcDbLine
 10
197.05
 20
58.5001
 30
0.0
 11
197.05
 21
58.5001
 31
0.0
  0
SPLINE
  5
166
100
AcDbEntity
  8
C00-00-00-BLACK
100
AcDbSpline
210
0.0
220
0.0
230
1.0
 70
     0
 71
     3
 72
     8
 73
4
 40
0.0
 40
0.0
 40
0.0
 40
0.0
 40
1.0
 40
1.0
 40
1.0
 40
1.0
 10
197.05
 20
58.5001
 30
0.0
 10
197.05
 20
59.3559
 30
0.0
 10
196.356
 20
60.0498
 30
0.0
 10
195.5
 20
60.0498
 30
0.0
  0
SPLINE
  5
167
100
AcDbEntity
  8
C00-00-00-BLACK
100
AcDbSpline
210
0.0
220
0.0
230
1.0
 70
     0
 71
     3
 72
     8
 73
4
 40
0.0
 40
0.0
 40
0.0
 40
0.0
 40
1.0
 40
1.0
 40
1.0
 40
1.0
 10
195.5
 20
60.0498
 30
0.0
 10
194.644
 20
60.0498
 30
0.0
 10
193.95
 20
59.3559
 30
0.0
 10
193.95
 20
58.5001
 30
0.0
  0
SPLINE
  5
168
100
AcDbEntity
  8
C00-00-00-BLACK
100
AcDbSpline
210
0.0
220
0.0
230
1.0
 70
     0
 71
     3
 72
     8
 73
4
 40
0.0
 40
0.0
 40
0.0
 40
0.0
 40
1.0
 40
1.0
 40
1.0
 40
1.0
 10
193.95
 20
58.5001
 30
0.0
 10
193.95
 20
57.6442
 30
0.0
 10
194.644
 20
56.95
 30
0.0
 10
195.5
 20
56.95
 30
0.0
  0
SPLINE
  5
169
100
AcDbEntity
  8
C00-00-00-BLACK
100
AcDbSpline
210
0.0
220
0.0
230
1.0
 70
     0
 71
     3
 72
     8
 73
4
 40
0.0
 40
0.0
 40
0.0
 40
0.0
 40
1.0
 40
1.0
 40
1.0
 40
1.0
 10
195.5
 20
56.95
 30
0.0
 10
196.356
 20
56.95
 30
0.0
 10
197.05
 20
57.6442
 30
0.0
 10
197.05
 20
58.5001
 30
0.0
  0
LINE
  5
16a
100
AcDbEntity
  8
C00-00-00-BLACK
100
AcDbLine
 10
197.05
 20
73.4998
 30
0.0
 11
197.05
 21
73.4998
 31
0.0
  0
SPLINE
  5
16b
100
AcDbEntity
  8
C00-00-00-BLACK
100
AcDbSpline
210
0.0
220
0.0
230
1.0
 70
     0
 71
     3
 72
     8
 73
4
 40
0.0
 40
0.0
 40
0.0
 40
0.0
 40
1.0
 40
1.0
 40
1.0
 40
1.0
 10
197.05
 20
73.4998
 30
0.0
 10
197.05
 20
74.356
 30
0.0
 10
196.356
 20
75.0499
 30
0.0
 10
195.5
 20
75.0499
 30
0.0
  0
SPLINE
  5
16c
100
AcDbEntity
  8
C00-00-00-BLACK
100
AcDbSpline
210
0.0
220
0.0
230
1.0
 70
     0
 71
     3
 72
     8
 73
4
 40
0.0
 40
0.0
 40
0.0
 40
0.0
 40
1.0
 40
1.0
 40
1.0
 40
1.0
 10
195.5
 20
75.0499
 30
0.0
 10
194.644
 20
75.0499
 30
0.0
 10
193.95
 20
74.356
 30
0.0
 10
193.95
 20
73.4998
 30
0.0
  0
SPLINE
  5
16d
100
AcDbEntity
  8
C00-00-00-BLACK
100
AcDbSpline
210
0.0
220
0.0
230
1.0
 70
     0
 71
     3
 72
     8
 73
4
 40
0.0
 40
0.0
 40
0.0
 40
0.0
 40
1.0
 40
1.0
 40
1.0
 40
1.0
 10
193.95
 20
73.4998
 30
0.0
 10
193.95
 20
72.644
 30
0.0
 10
194.644
 20
71.9501
 30
0.0
 10
195.5
 20
71.9501
 30
0.0
  0
SPLINE
  5
16e
100
AcDbEntity
  8
C00-00-00-BLACK
100
AcDbSpline
210
0.0
220
0.0
230
1.0
 70
     0
 71
     3
 72
     8
 73
4
 40
0.0
 40
0.0
 40
0.0
 40
0.0
 40
1.0
 40
1.0
 40
1.0
 40
1.0
 10
195.5
 20
71.9501
 30
0.0
 10
196.356
 20
71.9501
 30
0.0
 10
197.05
 20
72.644
 30
0.0
 10
197.05
 20
73.4998
 30
0.0
  0
LINE
  5
16f
100
AcDbEntity
  8
C00-00-00-BLACK
100
AcDbLine
 10
188
 20
82
 30
0.0
 11
203
 21
82
 31
0.0
  0
LINE
  5
170
100
AcDbEntity
  8
C00-00-00-BLACK
100
AcDbLine
 10
203
 20
82
 30
0.0
 11
203
 21
112
 31
0.0
  0
LINE
  5
171
100
AcDbEntity
  8
C00-00-00-BLACK
100
AcDbLine
 10
203
 20
112
 30
0.0
 11
188
 21
112
 31
0.0
  0
LINE
  5
172
100
AcDbEntity
  8
C00-00-00-BLACK
100
AcDbLine
 10
188
 20
112
 30
0.0
 11
188
 21
82
 31
0.0
  0
LINE
  5
173
100
AcDbEntity
  8
C00-00-00-BLACK
100
AcDbLine
 10
197.05
 20
89.5001
 30
0.0
 11
197.05
 21
89.5001
 31
0.0
  0
SPLINE
  5
174
100
AcDbEntity
  8
C00-00-00-BLACK
100
AcDbSpline
210
0.0
220
0.0
230
1.0
 70
     0
 71
     3
 72
     8
 73
4
 40
0.0
 40
0.0
 40
0.0
 40
0.0
 40
1.0
 40
1.0
 40
1.0
 40
1.0
 10
197.05
 20
89.5001
 30
0.0
 10
197.05
 20
90.3559
 30
0.0
 10
196.356
 20
91.0502
 30
0.0
 10
195.5
 20
91.0502
 30
0.0
  0
SPLINE
  5
175
100
AcDbEntity
  8
C00-00-00-BLACK
100
AcDbSpline
210
0.0
220
0.0
230
1.0
 70
     0
 71
     3
 72
     8
 73
4
 40
0.0
 40
0.0
 40
0.0
 40
0.0
 40
1.0
 40
1.0
 40
1.0
 40
1.0
 10
195.5
 20
91.0502
 30
0.0
 10
194.644
 20
91.0502
 30
0.0
 10
193.95
 20
90.3559
 30
0.0
 10
193.95
 20
89.5001
 30
0.0
  0
SPLINE
  5
176
100
AcDbEntity
  8
C00-00-00-BLACK
100
AcDbSpline
210
0.0
220
0.0
230
1.0
 70
     0
 71
     3
 72
     8
 73
4
 40
0.0
 40
0.0
 40
0.0
 40
0.0
 40
1.0
 40
1.0
 40
1.0
 40
1.0
 10
193.95
 20
89.5001
 30
0.0
 10
193.95
 20
88.6439
 30
0.0
 10
194.644
 20
87.95
 30
0.0
 10
195.5
 20
87.95
 30
0.0
  0
SPLINE
  5
177
100
AcDbEntity
  8
C00-00-00-BLACK
100
AcDbSpline
210
0.0
220
0.0
230
1.0
 70
     0
 71
     3
 72
     8
 73
4
 40
0.0
 40
0.0
 40
0.0
 40
0.0
 40
1.0
 40
1.0
 40
1.0
 40
1.0
 10
195.5
 20
87.95
 30
0.0
 10
196.356
 20
87.95
 30
0.0
 10
197.05
 20
88.6439
 30
0.0
 10
197.05
 20
89.5001
 30
0.0
  0
LINE
  5
178
100
AcDbEntity
  8
C00-00-00-BLACK
100
AcDbLine
 10
197.05
 20
104.5
 30
0.0
 11
197.05
 21
104.5
 31
0.0
  0
SPLINE
  5
179
100
AcDbEntity
  8
C00-00-00-BLACK
100
AcDbSpline
210
0.0
220
0.0
230
1.0
 70
     0
 71
     3
 72
     8
 73
4
 40
0.0
 40
0.0
 40
0.0
 40
0.0
 40
1.0
 40
1.0
 40
1.0
 40
1.0
 10
197.05
 20
104.5
 30
0.0
 10
197.05
 20
105.356
 30
0.0
 10
196.356
 20
106.05
 30
0.0
 10
195.5
 20
106.05
 30
0.0
  0
SPLINE
  5
17a
100
AcDbEntity
  8
C00-00-00-BLACK
100
AcDbSpline
210
0.0
220
0.0
230
1.0
 70
     0
 71
     3
 72
     8
 73
4
 40
0.0
 40
0.0
 40
0.0
 40
0.0
 40
1.0
 40
1.0
 40
1.0
 40
1.0
 10
195.5
 20
106.05
 30
0.0
 10
194.644
 20
106.05
 30
0.0
 10
193.95
 20
105.356
 30
0.0
 10
193.95
 20
104.5
 30
0.0
  0
SPLINE
  5
17b
100
AcDbEntity
  8
C00-00-00-BLACK
100
AcDbSpline
210
0.0
220
0.0
230
1.0
 70
     0
 71
     3
 72
     8
 73
4
 40
0.0
 40
0.0
 40
0.0
 40
0.0
 40
1.0
 40
1.0
 40
1.0
 40
1.0
 10
193.95
 20
104.5
 30
0.0
 10
193.95
 20
103.644
 30
0.0
 10
194.644
 20
102.95
 30
0.0
 10
195.5
 20
102.95
 30
0.0
  0
SPLINE
  5
17c
100
AcDbEntity
  8
C00-00-00-BLACK
100
AcDbSpline
210
0.0
220
0.0
230
1.0
 70
     0
 71
     3
 72
     8
 73
4
 40
0.0
 40
0.0
 40
0.0
 40
0.0
 40
1.0
 40
1.0
 40
1.0
 40
1.0
 10
195.5
 20
102.95
 30
0.0
 10
196.356
 20
102.95
 30
0.0
 10
197.05
 20
103.644
 30
0.0
 10
197.05
 20
104.5
 30
0.0
  0
ENDSEC
  0
SECTION
  2
OBJECTS
  0
DICTIONARY
  5
C
330
0
100
AcDbDictionary
  3
ACAD_GROUP
350
D
  3
ACAD_LAYOUT
350
1A
  3
ACAD_MLINESTYLE
350
17
  3
ACAD_PLOTSETTINGS
350
19
  3
ACAD_PLOTSTYLENAME
350
E
  3
ACDBHEADERROUNDTRIPXREC
350
2F
  0
DICTIONARY
  5
52
330
1F
100
AcDbDictionary
280
     1
  3
ACAD_LAYOUTSELFREF
360
53
  0
DICTIONARY
  5
50
330
1B
100
AcDbDictionary
280
     1
  3
ACAD_LAYOUTSELFREF
360
51
  0
DICTIONARY
  5
D
102
{ACAD_REACTORS
330
C
102
}
330
C
100
AcDbDictionary
  0
DICTIONARY
  5
1A
102
{ACAD_REACTORS
330
C
102
}
330
C
100
AcDbDictionary
  0
DICTIONARY
  5
17
102
{ACAD_REACTORS
330
C
102
}
330
C
100
AcDbDictionary
  3
STANDARD
350
18
  0
DICTIONARY
  5
19
102
{ACAD_REACTORS
330
C
102
}
330
C
100
AcDbDictionary
  0
ACDBDICTIONARYWDFLT
  5
E
102
{ACAD_REACTORS
330
C
102
}
330
C
100
AcDbDictionary
281
     1
  3
Normal
350
F
100
AcDbDictionaryWithDefault
340
F
  0
DICTIONARY
  5
2F
102
{ACAD_REACTORS
330
C
102
}
330
C
100
AcDbDictionary
  3
CEPSNTYPE
350
39
  3
DIMSTYLEDATA
350
3D
  3
FINGERPRINTGUID
350
3A
  3
HYPERLINKBASE
350
32
  3
INSUNITS
350
38
  3
LAYOUTDICT
350
34
  3
LWETCUNION
350
37
  3
PLOTSETDICT
350
35
  3
PLOTSTYLNAMDICT
350
36
  3
PSVPSCALE
350
3C
  3
PUCSBASE
350
40
  3
PUCSORGBACK
350
46
  3
PUCSORGBOTTOM
350
42
  3
PUCSORGFRONT
350
45
  3
PUCSORGLEFT
350
43
  3
PUCSORGRIGHT
350
44
  3
PUCSORGTOP
350
41
  3
PUCSORTHOREF
350
3E
  3
PUCSORTHOVIEW
350
3F
  3
STYLESHEET
350
33
  3
TSTACKALIGN
350
30
  3
TSTACKSIZE
350
31
  3
UCSBASE
350
49
  3
UCSORGBACK
350
4F
  3
UCSORGBOTTOM
350
4B
  3
UCSORGFRONT
350
4E
  3
UCSORGLEFT
350
4C
  3
UCSORGRIGHT
350
4D
  3
UCSORGTOP
350
4A
  3
UCSORTHOREF
350
47
  3
UCSORTHOVIEW
350
48
  3
VERSIONGUID
350
3B
  0
XRECORD
  5
53
102
{ACAD_REACTORS
330
52
102
}
330
52
100
AcDbXrecord
340
1F
  0
XRECORD
  5
51
102
{ACAD_REACTORS
330
50
102
}
330
50
100
AcDbXrecord
340
1B
  0
MLINESTYLE
  5
18
102
{ACAD_REACTORS
330
17
102
}
330
17
100
AcDbMlineStyle
  2
STANDARD
 70
     0
  3

 62
   256
 51
90.0
 52
90.0
 71
     2
 49
0.5
 62
   256
  6
BYLAYER
 49
-0.5
 62
   256
  6
BYLAYER
  0
ACDBPLACEHOLDER
  5
F
102
{ACAD_REACTORS
330
E
102
}
330
E
100
AcDbPlaceHolder
280
     0
  0
XRECORD
  5
39
102
{ACAD_REACTORS
330
2F
102
}
330
2F
100
AcDbXrecord
 90
        0
  0
XRECORD
  5
3D
102
{ACAD_REACTORS
330
2F
102
}
330
2F
100
AcDbXrecord
1000
DSTYLE
1002
{
1070
   278
 70
    44
1002
}
  0
XRECORD
  5
3A
102
{ACAD_REACTORS
330
2F
102
}
330
2F
100
AcDbXrecord
  1
{705446A6-11D0-4548-8F8C-A97DCA50327D}
  0
XRECORD
  5
32
102
{ACAD_REACTORS
330
2F
102
}
330
2F
100
AcDbXrecord
  1

  0
XRECORD
  5
38
102
{ACAD_REACTORS
330
2F
102
}
330
2F
100
AcDbXrecord
 90
        4
  0
XRECORD
  5
34
102
{ACAD_REACTORS
330
2F
102
}
330
2F
100
AcDbXrecord
340
1A
  0
XRECORD
  5
37
102
{ACAD_REACTORS
330
2F
102
}
330
2F
100
AcDbXrecord
 90
    10781
  0
XRECORD
  5
35
102
{ACAD_REACTORS
330
2F
102
}
330
2F
100
AcDbXrecord
340
19
  0
XRECORD
  5
36
102
{ACAD_REACTORS
330
2F
102
}
330
2F
100
AcDbXrecord
340
E
  0
XRECORD
  5
3C
102
{ACAD_REACTORS
330
2F
102
}
330
2F
100
AcDbXrecord
 40
0.0
  0
XRECORD
  5
40
102
{ACAD_REACTORS
330
2F
102
}
330
2F
100
AcDbXrecord
340
0
  0
XRECORD
  5
46
102
{ACAD_REACTORS
330
2F
102
}
330
2F
100
AcDbXrecord
 10
0.0
 20
0.0
 30
0.0
  0
XRECORD
  5
42
102
{ACAD_REACTORS
330
2F
102
}
330
2F
100
AcDbXrecord
 10
0.0
 20
0.0
 30
0.0
  0
XRECORD
  5
45
102
{ACAD_REACTORS
330
2F
102
}
330
2F
100
AcDbXrecord
 10
0.0
 20
0.0
 30
0.0
  0
XRECORD
  5
43
102
{ACAD_REACTORS
330
2F
102
}
330
2F
100
AcDbXrecord
 10
0.0
 20
0.0
 30
0.0
  0
XRECORD
  5
44
102
{ACAD_REACTORS
330
2F
102
}
330
2F
100
AcDbXrecord
 10
0.0
 20
0.0
 30
0.0
  0
XRECORD
  5
41
102
{ACAD_REACTORS
330
2F
102
}
330
2F
100
AcDbXrecord
 10
0.0
 20
0.0
 30
0.0
  0
XRECORD
  5
3E
102
{ACAD_REACTORS
330
2F
102
}
330
2F
100
AcDbXrecord
340
0
  0
XRECORD
  5
3F
102
{ACAD_REACTORS
330
2F
102
}
330
2F
100
AcDbXrecord
 70
     0
  0
XRECORD
  5
33
102
{ACAD_REACTORS
330
2F
102
}
330
2F
100
AcDbXrecord
  1

  0
XRECORD
  5
30
102
{ACAD_REACTORS
330
2F
102
}
330
2F
100
AcDbXrecord
 90
        1
  0
XRECORD
  5
31
102
{ACAD_REACTORS
330
2F
102
}
330
2F
100
AcDbXrecord
 90
       70
  0
XRECORD
  5
49
102
{ACAD_REACTORS
330
2F
102
}
330
2F
100
AcDbXrecord
340
0
  0
XRECORD
  5
4F
102
{ACAD_REACTORS
330
2F
102
}
330
2F
100
AcDbXrecord
 10
0.0
 20
0.0
 30
0.0
  0
XRECORD
  5
4B
102
{ACAD_REACTORS
330
2F
102
}
330
2F
100
AcDbXrecord
 10
0.0
 20
0.0
 30
0.0
  0
XRECORD
  5
4E
102
{ACAD_REACTORS
330
2F
102
}
330
2F
100
AcDbXrecord
 10
0.0
 20
0.0
 30
0.0
  0
XRECORD
  5
4C
102
{ACAD_REACTORS
330
2F
102
}
330
2F
100
AcDbXrecord
 10
0.0
 20
0.0
 30
0.0
  0
XRECORD
  5
4D
102
{ACAD_REACTORS
330
2F
102
}
330
2F
100
AcDbXrecord
 10
0.0
 20
0.0
 30
0.0
  0
XRECORD
  5
4A
102
{ACAD_REACTORS
330
2F
102
}
330
2F
100
AcDbXrecord
 10
0.0
 20
0.0
 30
0.0
  0
XRECORD
  5
47
102
{ACAD_REACTORS
330
2F
102
}
330
2F
100
AcDbXrecord
340
0
  0
XRECORD
  5
48
102
{ACAD_REACTORS
330
2F
102
}
330
2F
100
AcDbXrecord
 70
     0
  0
XRECORD
  5
3B
102
{ACAD_REACTORS
330
2F
102
}
330
2F
100
AcDbXrecord
  1
{33328E3A-B6B8-4979-86B7-D70DEC2867C2}
  0
ENDSEC
  0
EOF
